<svg xmlns="http://www.w3.org/2000/svg" width="400" height="400" aria-labelledby="marking-critical-error-title marking-critical-error-desc" data-motion-family="impact" data-motion-preset="critical" data-pack="reactions" data-source="svgs/mascots/marking-critical-error.svg" data-source-sha256="a7b14964f3e0536a3ef4e7da4c5bae568acbdcd033bc68f17f4d3f45d9e8642b" overflow="hidden" role="img" shape-rendering="crispEdges" viewBox="0 0 2000 2000"><title id="marking-critical-error-title">Marking Critical Error</title><desc id="marking-critical-error-desc">The terracotta mascot marks the critical point with an anticipatory lean, contact recoil, and a deliberate hold. The loop uses bounded anticipation, contact weight, and recovery inside the fixed frame.</desc><style>@keyframes marking-critical-error-actor-motion{0%,17%,72%,to{transform:translate(0,0) rotate(0deg) scale(1,1)}27%{transform:translate(-34.718px,6.3px) rotate(-2.4deg) scale(1.035,.95)}36%{transform:translate(91.364px,-3.6px) rotate(2.6deg) scale(.96,1.045)}43%{transform:translate(65.782px,8.1px) rotate(1.4deg) scale(1.075,.85)}46.625%{transform:translate(25.336px,3.12px) rotate(.539deg) scale(1.029,.942)}50.25%{transform:translate(-.693px,-.085px) rotate(-.015deg) scale(.999,1.002)}53.875%{transform:translate(-2.48px,-.305px) rotate(-.053deg) scale(.997,1.006)}57.5%{transform:translate(-.461px,-.057px) rotate(-.01deg) scale(.999,1.001)}61.125%{transform:translate(.131px,.016px) rotate(.003deg) scale(1,1)}64.75%{transform:translate(.07px,.009px) rotate(.001deg) scale(1,1)}68.375%{transform:translate(.003px,0) rotate(0deg) scale(1,1)}}@keyframes marking-critical-error-shadow-motion{0%,17%,72%,to{transform:translateX(0) scaleX(1);opacity:.26}27%{transform:translateX(-23.608px) scaleX(1.002);opacity:.26}36%{transform:translateX(62.128px) scaleX(.991);opacity:.257}43%{transform:translateX(44.732px) scaleX(1.002);opacity:.26}46.625%{transform:translateX(17.228px) scaleX(1.001);opacity:.26}50.25%{transform:translateX(-.471px) scaleX(1);opacity:.26}53.875%{transform:translateX(-1.686px) scaleX(.999);opacity:.26}57.5%{transform:translateX(-.314px) scaleX(1);opacity:.26}61.125%{transform:translateX(.089px) scaleX(1);opacity:.26}64.75%{transform:translateX(.048px) scaleX(1);opacity:.26}68.375%{transform:translateX(.002px) scaleX(1);opacity:.26}}@keyframes marking-critical-error-prop-motion{0%,17%,72%,to{transform:translate(0,0) rotate(0deg)}27%{transform:translate(6.249px,-.756px) rotate(.528deg)}36%{transform:translate(-16.446px,.432px) rotate(-.572deg)}43%{transform:translate(-11.841px,-.972px) rotate(-.308deg)}46.625%{transform:translate(-4.56px,-.374px) rotate(-.119deg)}50.25%{transform:translate(.125px,.01px) rotate(.003deg)}53.875%{transform:translate(.446px,.037px) rotate(.012deg)}57.5%{transform:translate(.083px,.007px) rotate(.002deg)}61.125%{transform:translate(-.024px,-.002px) rotate(-.001deg)}64.75%{transform:translate(-.013px,-.001px) rotate(0deg)}68.375%{transform:translate(-.001px,0) rotate(0deg)}}.marking-critical-error-actor{animation:marking-critical-error-actor-motion 4000ms linear infinite;transform-box:view-box;transform-origin:1000px 1428.975px}.marking-critical-error-prop{animation:marking-critical-error-prop-motion 4000ms linear infinite;transform-box:view-box;transform-origin:1000px 1192.8px}@media (prefers-reduced-motion:reduce){.marking-critical-error-actor,.marking-critical-error-prop{animation:none!important;transform:none!important}}</style><ellipse cx="1000" cy="1452.975" fill="#2f2f38" data-shadow="true" opacity=".26" rx="326.021" ry="23.953" style="animation:marking-critical-error-shadow-motion 4000ms linear infinite;transform-box:view-box;transform-origin:1000px 1452.975px"/><g data-source-index="0"><path fill="#ad2aad" d="M871.025 571.025h43.55v43.55h-43.55z"/></g><g data-source-index="1"><path fill="#ad2aad" d="M914.225 571.025h43.55v43.55h-43.55z"/></g><g data-source-index="2"><path fill="#ad2aad" d="M956.625 571.025h43.55v43.55h-43.55z"/></g><g data-source-index="3"><path fill="#ad2aad" d="M999.825 571.025h43.55v43.55h-43.55z"/></g><g data-source-index="4"><path fill="#ad2aad" d="M1043.025 571.025h43.55v43.55h-43.55z"/></g><g data-source-index="5"><path fill="#ad2aad" d="M1085.425 571.025h43.55v43.55h-43.55z"/></g><g data-source-index="6"><path fill="#ff7b8e" d="M699.825 614.225h43.55v43.55h-43.55z"/></g><g data-source-index="7"><path fill="#ad2aad" d="M828.625 614.225h43.55v43.55h-43.55z"/></g><g data-source-index="8"><path fill="#ad2aad" d="M871.025 614.225h43.55v43.55h-43.55z"/></g><g data-source-index="9"><path fill="#ad2aad" d="M914.225 614.225h43.55v43.55h-43.55z"/></g><g data-source-index="10"><path fill="#ad2aad" d="M956.625 614.225h43.55v43.55h-43.55z"/></g><g data-source-index="11"><path fill="#ad2aad" d="M999.825 614.225h43.55v43.55h-43.55z"/></g><g data-source-index="12"><path fill="#ad2aad" d="M1043.025 614.225h43.55v43.55h-43.55z"/></g><g data-source-index="13"><path fill="#ad2aad" d="M1085.425 614.225h43.55v43.55h-43.55z"/></g><g data-source-index="14"><path fill="#ad2aad" d="M1128.625 614.225h43.55v43.55h-43.55z"/></g><g data-source-index="15"><path fill="#ff7b8e" d="M1256.625 614.225h43.55v43.55h-43.55z"/></g><g data-source-index="16"><path fill="#ff7b8e" d="M614.225 656.625h43.55v43.55h-43.55z"/></g><g data-source-index="17"><path fill="#ad2aad" d="M785.425 656.625h43.55v43.55h-43.55z"/></g><g data-source-index="18"><path fill="#ad2aad" d="M828.625 656.625h43.55v43.55h-43.55z"/></g><g data-source-index="19"><path fill="#ff7b8e" d="M871.025 656.625h43.55v43.55h-43.55z"/></g><g data-source-index="20"><path fill="#ad2aad" d="M914.225 656.625h43.55v43.55h-43.55z"/></g><g data-source-index="21"><path fill="#ad2aad" d="M956.625 656.625h43.55v43.55h-43.55z"/></g><g data-source-index="22"><path fill="#ad2aad" d="M999.825 656.625h43.55v43.55h-43.55z"/></g><g data-source-index="23"><path fill="#ad2aad" d="M1043.025 656.625h43.55v43.55h-43.55z"/></g><g data-source-index="24"><path fill="#ff7b8e" d="M1085.425 656.625h43.55v43.55h-43.55z"/></g><g data-source-index="25"><path fill="#ad2aad" d="M1128.625 656.625h43.55v43.55h-43.55z"/></g><g data-source-index="26"><path fill="#ad2aad" d="M1171.025 656.625h43.55v43.55h-43.55z"/></g><g data-source-index="27"><path fill="#ff7b8e" d="M1343.025 656.625h43.55v43.55h-43.55z"/></g><g data-source-index="28"><path fill="#ad2aad" d="M785.425 699.825h43.55v43.55h-43.55z"/></g><g data-source-index="29"><path fill="#ad2aad" d="M828.625 699.825h43.55v43.55h-43.55z"/></g><g data-source-index="30"><path fill="#ad2aad" d="M871.025 699.825h43.55v43.55h-43.55z"/></g><g data-source-index="31"><path fill="#ff7b8e" d="M914.225 699.825h43.55v43.55h-43.55z"/></g><g data-source-index="32"><path fill="#ad2aad" d="M956.625 699.825h43.55v43.55h-43.55z"/></g><g data-source-index="33"><path fill="#ad2aad" d="M999.825 699.825h43.55v43.55h-43.55z"/></g><g data-source-index="34"><path fill="#ff7b8e" d="M1043.025 699.825h43.55v43.55h-43.55z"/></g><g data-source-index="35"><path fill="#ad2aad" d="M1085.425 699.825h43.55v43.55h-43.55z"/></g><g data-source-index="36"><path fill="#ad2aad" d="M1128.625 699.825h43.55v43.55h-43.55z"/></g><g data-source-index="37"><path fill="#ad2aad" d="M1171.025 699.825h43.55v43.55h-43.55z"/></g><g class="marking-critical-error-prop" data-prop="true" data-source-index="38"><path fill="#ff7b8e" d="M656.625 743.025h43.55v43.55h-43.55z"/></g><g class="marking-critical-error-prop" data-prop="true" data-source-index="39"><path fill="#ad2aad" d="M785.425 743.025h43.55v43.55h-43.55z"/></g><g class="marking-critical-error-prop" data-prop="true" data-source-index="40"><path fill="#ad2aad" d="M828.625 743.025h43.55v43.55h-43.55z"/></g><g class="marking-critical-error-prop" data-prop="true" data-source-index="41"><path fill="#ad2aad" d="M871.025 743.025h43.55v43.55h-43.55z"/></g><g class="marking-critical-error-prop" data-prop="true" data-source-index="42"><path fill="#ad2aad" d="M914.225 743.025h43.55v43.55h-43.55z"/></g><g class="marking-critical-error-prop" data-prop="true" data-source-index="43"><path fill="#ff7b8e" d="M956.625 743.025h43.55v43.55h-43.55z"/></g><g class="marking-critical-error-prop" data-prop="true" data-source-index="44"><path fill="#ff7b8e" d="M999.825 743.025h43.55v43.55h-43.55z"/></g><g class="marking-critical-error-prop" data-prop="true" data-source-index="45"><path fill="#ad2aad" d="M1043.025 743.025h43.55v43.55h-43.55z"/></g><g class="marking-critical-error-prop" data-prop="true" data-source-index="46"><path fill="#ad2aad" d="M1085.425 743.025h43.55v43.55h-43.55z"/></g><g class="marking-critical-error-prop" data-prop="true" data-source-index="47"><path fill="#ad2aad" d="M1128.625 743.025h43.55v43.55h-43.55z"/></g><g class="marking-critical-error-prop" data-prop="true" data-source-index="48"><path fill="#ad2aad" d="M1171.025 743.025h43.55v43.55h-43.55z"/></g><g class="marking-critical-error-prop" data-prop="true" data-source-index="49"><path fill="#ff7b8e" d="M1299.825 743.025h43.55v43.55h-43.55z"/></g><g class="marking-critical-error-prop" data-prop="true" data-source-index="50"><path fill="#ad2aad" d="M785.425 785.425h43.55v43.55h-43.55z"/></g><g class="marking-critical-error-prop" data-prop="true" data-source-index="51"><path fill="#ad2aad" d="M828.625 785.425h43.55v43.55h-43.55z"/></g><g class="marking-critical-error-prop" data-prop="true" data-source-index="52"><path fill="#ad2aad" d="M871.025 785.425h43.55v43.55h-43.55z"/></g><g class="marking-critical-error-prop" data-prop="true" data-source-index="53"><path fill="#ff7b8e" d="M914.225 785.425h43.55v43.55h-43.55z"/></g><g class="marking-critical-error-prop" data-prop="true" data-source-index="54"><path fill="#ad2aad" d="M956.625 785.425h43.55v43.55h-43.55z"/></g><g class="marking-critical-error-prop" data-prop="true" data-source-index="55"><path fill="#ad2aad" d="M999.825 785.425h43.55v43.55h-43.55z"/></g><g class="marking-critical-error-prop" data-prop="true" data-source-index="56"><path fill="#ff7b8e" d="M1043.025 785.425h43.55v43.55h-43.55z"/></g><g class="marking-critical-error-prop" data-prop="true" data-source-index="57"><path fill="#ad2aad" d="M1085.425 785.425h43.55v43.55h-43.55z"/></g><g class="marking-critical-error-prop" data-prop="true" data-source-index="58"><path fill="#ad2aad" d="M1128.625 785.425h43.55v43.55h-43.55z"/></g><g class="marking-critical-error-prop" data-prop="true" data-source-index="59"><path fill="#ad2aad" d="M1171.025 785.425h43.55v43.55h-43.55z"/></g><g class="marking-critical-error-prop" data-prop="true" data-source-index="60"><path fill="#ad2aad" d="M785.425 828.625h43.55v43.55h-43.55z"/></g><g class="marking-critical-error-prop" data-prop="true" data-source-index="61"><path fill="#ad2aad" d="M828.625 828.625h43.55v43.55h-43.55z"/></g><g class="marking-critical-error-prop" data-prop="true" data-source-index="62"><path fill="#ff7b8e" d="M871.025 828.625h43.55v43.55h-43.55z"/></g><g class="marking-critical-error-prop" data-prop="true" data-source-index="63"><path fill="#ad2aad" d="M914.225 828.625h43.55v43.55h-43.55z"/></g><g class="marking-critical-error-prop" data-prop="true" data-source-index="64"><path fill="#ad2aad" d="M956.625 828.625h43.55v43.55h-43.55z"/></g><g class="marking-critical-error-prop" data-prop="true" data-source-index="65"><path fill="#ad2aad" d="M999.825 828.625h43.55v43.55h-43.55z"/></g><g class="marking-critical-error-prop" data-prop="true" data-source-index="66"><path fill="#ad2aad" d="M1043.025 828.625h43.55v43.55h-43.55z"/></g><g class="marking-critical-error-prop" data-prop="true" data-source-index="67"><path fill="#ff7b8e" d="M1085.425 828.625h43.55v43.55h-43.55z"/></g><g class="marking-critical-error-prop" data-prop="true" data-source-index="68"><path fill="#ad2aad" d="M1128.625 828.625h43.55v43.55h-43.55z"/></g><g class="marking-critical-error-prop" data-prop="true" data-source-index="69"><path fill="#ad2aad" d="M1171.025 828.625h43.55v43.55h-43.55z"/></g><g class="marking-critical-error-prop" data-prop="true" data-source-index="70"><path fill="#ad2aad" d="M828.625 871.025h43.55v43.55h-43.55z"/></g><g class="marking-critical-error-prop" data-prop="true" data-source-index="71"><path fill="#ad2aad" d="M871.025 871.025h43.55v43.55h-43.55z"/></g><g class="marking-critical-error-prop" data-prop="true" data-source-index="72"><path fill="#ad2aad" d="M914.225 871.025h43.55v43.55h-43.55z"/></g><g class="marking-critical-error-prop" data-prop="true" data-source-index="73"><path fill="#ad2aad" d="M956.625 871.025h43.55v43.55h-43.55z"/></g><g class="marking-critical-error-prop" data-prop="true" data-source-index="74"><path fill="#ad2aad" d="M999.825 871.025h43.55v43.55h-43.55z"/></g><g class="marking-critical-error-prop" data-prop="true" data-source-index="75"><path fill="#ad2aad" d="M1043.025 871.025h43.55v43.55h-43.55z"/></g><g class="marking-critical-error-prop" data-prop="true" data-source-index="76"><path fill="#ad2aad" d="M1085.425 871.025h43.55v43.55h-43.55z"/></g><g class="marking-critical-error-prop" data-prop="true" data-source-index="77"><path fill="#ad2aad" d="M1128.625 871.025h43.55v43.55h-43.55z"/></g><g class="marking-critical-error-prop" data-prop="true" data-source-index="78"><path fill="#ad2aad" d="M871.025 914.225h43.55v43.55h-43.55z"/></g><g class="marking-critical-error-prop" data-prop="true" data-source-index="79"><path fill="#ad2aad" d="M914.225 914.225h43.55v43.55h-43.55z"/></g><g class="marking-critical-error-prop" data-prop="true" data-source-index="80"><path fill="#ad2aad" d="M956.625 914.225h43.55v43.55h-43.55z"/></g><g class="marking-critical-error-prop" data-prop="true" data-source-index="81"><path fill="#ad2aad" d="M999.825 914.225h43.55v43.55h-43.55z"/></g><g class="marking-critical-error-prop" data-prop="true" data-source-index="82"><path fill="#ad2aad" d="M1043.025 914.225h43.55v43.55h-43.55z"/></g><g class="marking-critical-error-prop" data-prop="true" data-source-index="83"><path fill="#ad2aad" d="M1085.425 914.225h43.55v43.55h-43.55z"/></g><g class="marking-critical-error-actor" data-actor="true" data-source-index="84"><path fill="#2f2f38" d="M828.625 1043.025h43.55v43.55h-43.55z"/></g><g class="marking-critical-error-actor" data-actor="true" data-source-index="85"><path fill="#2f2f38" d="M1128.625 1043.025h43.55v43.55h-43.55z"/></g><g class="marking-critical-error-actor" data-actor="true" data-source-index="86"><path fill="#2f2f38" d="M785.425 1085.425h43.55v43.55h-43.55z"/></g><g class="marking-critical-error-actor" data-actor="true" data-source-index="87"><path fill="#2f2f38" d="M871.025 1085.425h43.55v43.55h-43.55z"/></g><g class="marking-critical-error-actor" data-actor="true" data-source-index="88"><path fill="#2f2f38" d="M1085.425 1085.425h43.55v43.55h-43.55z"/></g><g class="marking-critical-error-actor" data-actor="true" data-source-index="89"><path fill="#2f2f38" d="M1171.025 1085.425h43.55v43.55h-43.55z"/></g><g class="marking-critical-error-actor" data-actor="true" data-source-index="90"><path fill="#d97757" d="M571.025 1256.625h43.55v43.55h-43.55z"/></g><g class="marking-critical-error-actor" data-actor="true" data-source-index="91"><path fill="#d97757" d="M614.225 1256.625h43.55v43.55h-43.55z"/></g><g class="marking-critical-error-actor" data-actor="true" data-source-index="92"><path fill="#d97757" d="M656.625 1256.625h43.55v43.55h-43.55z"/></g><g class="marking-critical-error-actor" data-actor="true" data-source-index="93"><path fill="#d97757" d="M1299.825 1256.625h43.55v43.55h-43.55z"/></g><g class="marking-critical-error-actor" data-actor="true" data-source-index="94"><path fill="#d97757" d="M1343.025 1256.625h43.55v43.55h-43.55z"/></g><g class="marking-critical-error-actor" data-actor="true" data-source-index="95"><path fill="#d97757" d="M571.025 1299.825h43.55v43.55h-43.55z"/></g><g class="marking-critical-error-actor" data-actor="true" data-source-index="96"><path fill="#d97757" d="M614.225 1299.825h43.55v43.55h-43.55z"/></g><g class="marking-critical-error-actor" data-actor="true" data-source-index="97"><path fill="#d97757" d="M656.625 1299.825h43.55v43.55h-43.55z"/></g><g class="marking-critical-error-actor" data-actor="true" data-source-index="98"><path fill="#d97757" d="M1299.825 1299.825h43.55v43.55h-43.55z"/></g><g class="marking-critical-error-actor" data-actor="true" data-source-index="99"><path fill="#d97757" d="M1343.025 1299.825h43.55v43.55h-43.55z"/></g><g class="marking-critical-error-actor" data-actor="true" data-source-index="100"><path fill="#d97757" d="M699.825 1343.025h43.55v43.55h-43.55z"/></g><g class="marking-critical-error-actor" data-actor="true" data-source-index="101"><path fill="#d97757" d="M1256.625 1343.025h43.55v43.55h-43.55z"/></g><g class="marking-critical-error-actor" data-actor="true" data-source-index="102"><path fill="#d97757" d="M656.625 1385.425h43.55v43.55h-43.55z"/></g><g class="marking-critical-error-actor" data-actor="true" data-source-index="103"><path fill="#d97757" d="M871.025 1385.425h43.55v43.55h-43.55z"/></g><g class="marking-critical-error-actor" data-actor="true" data-source-index="104"><path fill="#d97757" d="M1085.425 1385.425h43.55v43.55h-43.55z"/></g><g class="marking-critical-error-actor" data-actor="true" data-source-index="105"><path fill="#d97757" d="M1299.825 1385.425h43.55v43.55h-43.55z"/></g><g class="marking-critical-error-actor" data-actor="true" data-source-index="106"><path fill="#d97757" d="M1385.425 1256.625h43.55v43.55h-43.55z"/></g><g class="marking-critical-error-actor" data-actor="true" data-source-index="107"><path fill="#d97757" d="M1385.425 1299.825h43.55v43.55h-43.55z"/></g><g class="marking-critical-error-actor" data-actor="true" data-source-index="108"><path fill="#d97757" d="M699.825 956.625h43.55v43.55h-43.55z"/></g><g class="marking-critical-error-actor" data-actor="true" data-source-index="109"><path fill="#d97757" d="M743.025 956.625h43.55v43.55h-43.55z"/></g><g class="marking-critical-error-actor" data-actor="true" data-source-index="110"><path fill="#d97757" d="M785.425 956.625h43.55v43.55h-43.55z"/></g><g class="marking-critical-error-actor" data-actor="true" data-source-index="111"><path fill="#d97757" d="M828.625 956.625h43.55v43.55h-43.55z"/></g><g class="marking-critical-error-actor" data-actor="true" data-source-index="112"><path fill="#d97757" d="M871.025 956.625h43.55v43.55h-43.55z"/></g><g class="marking-critical-error-actor" data-actor="true" data-source-index="113"><path fill="#d97757" d="M914.225 956.625h43.55v43.55h-43.55z"/></g><g class="marking-critical-error-actor" data-actor="true" data-source-index="114"><path fill="#d97757" d="M956.625 956.625h43.55v43.55h-43.55z"/></g><g class="marking-critical-error-actor" data-actor="true" data-source-index="115"><path fill="#d97757" d="M999.825 956.625h43.55v43.55h-43.55z"/></g><g class="marking-critical-error-actor" data-actor="true" data-source-index="116"><path fill="#d97757" d="M1043.025 956.625h43.55v43.55h-43.55z"/></g><g class="marking-critical-error-actor" data-actor="true" data-source-index="117"><path fill="#d97757" d="M699.825 999.825h43.55v43.55h-43.55z"/></g><g class="marking-critical-error-actor" data-actor="true" data-source-index="118"><path fill="#d97757" d="M743.025 999.825h43.55v43.55h-43.55z"/></g><g class="marking-critical-error-actor" data-actor="true" data-source-index="119"><path fill="#2f2f38" d="M785.425 999.825h43.55v43.55h-43.55z"/></g><g class="marking-critical-error-actor" data-actor="true" data-source-index="120"><path fill="#d97757" d="M828.625 999.825h43.55v43.55h-43.55z"/></g><g class="marking-critical-error-actor" data-actor="true" data-source-index="121"><path fill="#2f2f38" d="M871.025 999.825h43.55v43.55h-43.55z"/></g><g class="marking-critical-error-actor" data-actor="true" data-source-index="122"><path fill="#d97757" d="M914.225 999.825h43.55v43.55h-43.55z"/></g><g class="marking-critical-error-actor" data-actor="true" data-source-index="123"><path fill="#d97757" d="M956.625 999.825h43.55v43.55h-43.55z"/></g><g class="marking-critical-error-actor" data-actor="true" data-source-index="124"><path fill="#d97757" d="M999.825 999.825h43.55v43.55h-43.55z"/></g><g class="marking-critical-error-actor" data-actor="true" data-source-index="125"><path fill="#d97757" d="M1043.025 999.825h43.55v43.55h-43.55z"/></g><g class="marking-critical-error-actor" data-actor="true" data-source-index="126"><path fill="#d97757" d="M699.825 1043.025h43.55v43.55h-43.55z"/></g><g class="marking-critical-error-actor" data-actor="true" data-source-index="127"><path fill="#d97757" d="M743.025 1043.025h43.55v43.55h-43.55z"/></g><g class="marking-critical-error-actor" data-actor="true" data-source-index="128"><path fill="#d97757" d="M785.425 1043.025h43.55v43.55h-43.55z"/></g><g class="marking-critical-error-actor" data-actor="true" data-source-index="129"><path fill="#d97757" d="M871.025 1043.025h43.55v43.55h-43.55z"/></g><g class="marking-critical-error-actor" data-actor="true" data-source-index="130"><path fill="#d97757" d="M914.225 1043.025h43.55v43.55h-43.55z"/></g><g class="marking-critical-error-actor" data-actor="true" data-source-index="131"><path fill="#d97757" d="M956.625 1043.025h43.55v43.55h-43.55z"/></g><g class="marking-critical-error-actor" data-actor="true" data-source-index="132"><path fill="#d97757" d="M999.825 1043.025h43.55v43.55h-43.55z"/></g><g class="marking-critical-error-actor" data-actor="true" data-source-index="133"><path fill="#d97757" d="M1043.025 1043.025h43.55v43.55h-43.55z"/></g><g class="marking-critical-error-actor" data-actor="true" data-source-index="134"><path fill="#d97757" d="M699.825 1085.425h43.55v43.55h-43.55z"/></g><g class="marking-critical-error-actor" data-actor="true" data-source-index="135"><path fill="#d97757" d="M743.025 1085.425h43.55v43.55h-43.55z"/></g><g class="marking-critical-error-actor" data-actor="true" data-source-index="136"><path fill="#d97757" d="M828.625 1085.425h43.55v43.55h-43.55z"/></g><g class="marking-critical-error-actor" data-actor="true" data-source-index="137"><path fill="#d97757" d="M914.225 1085.425h43.55v43.55h-43.55z"/></g><g class="marking-critical-error-actor" data-actor="true" data-source-index="138"><path fill="#fff" d="M956.625 1085.425h43.55v43.55h-43.55z"/></g><g class="marking-critical-error-actor" data-actor="true" data-source-index="139"><path fill="#fff" d="M999.825 1085.425h43.55v43.55h-43.55z"/></g><g class="marking-critical-error-actor" data-actor="true" data-source-index="140"><path fill="#d97757" d="M1043.025 1085.425h43.55v43.55h-43.55z"/></g><g class="marking-critical-error-actor" data-actor="true" data-source-index="141"><path fill="#d97757" d="M699.825 1128.625h43.55v43.55h-43.55z"/></g><g class="marking-critical-error-actor" data-actor="true" data-source-index="142"><path fill="#d97757" d="M743.025 1128.625h43.55v43.55h-43.55z"/></g><g class="marking-critical-error-actor" data-actor="true" data-source-index="143"><path fill="#d97757" d="M785.425 1128.625h43.55v43.55h-43.55z"/></g><g class="marking-critical-error-actor" data-actor="true" data-source-index="144"><path fill="#d97757" d="M828.625 1128.625h43.55v43.55h-43.55z"/></g><g class="marking-critical-error-actor" data-actor="true" data-source-index="145"><path fill="#d97757" d="M871.025 1128.625h43.55v43.55h-43.55z"/></g><g class="marking-critical-error-actor" data-actor="true" data-source-index="146"><path fill="#fff" d="M914.225 1128.625h43.55v43.55h-43.55z"/></g><g class="marking-critical-error-actor" data-actor="true" data-source-index="147"><path fill="#d97757" d="M956.625 1128.625h43.55v43.55h-43.55z"/></g><g class="marking-critical-error-actor" data-actor="true" data-source-index="148"><path fill="#d97757" d="M999.825 1128.625h43.55v43.55h-43.55z"/></g><g class="marking-critical-error-actor" data-actor="true" data-source-index="149"><path fill="#fff" d="M1043.025 1128.625h43.55v43.55h-43.55z"/></g><g class="marking-critical-error-actor" data-actor="true" data-source-index="150"><path fill="#d97757" d="M699.825 1171.025h43.55v43.55h-43.55z"/></g><g class="marking-critical-error-actor" data-actor="true" data-source-index="151"><path fill="#d97757" d="M743.025 1171.025h43.55v43.55h-43.55z"/></g><g class="marking-critical-error-actor" data-actor="true" data-source-index="152"><path fill="#d97757" d="M785.425 1171.025h43.55v43.55h-43.55z"/></g><g class="marking-critical-error-actor" data-actor="true" data-source-index="153"><path fill="#d97757" d="M828.625 1171.025h43.55v43.55h-43.55z"/></g><g class="marking-critical-error-actor" data-actor="true" data-source-index="154"><path fill="#d97757" d="M871.025 1171.025h43.55v43.55h-43.55z"/></g><g class="marking-critical-error-actor" data-actor="true" data-source-index="155"><path fill="#d97757" d="M914.225 1171.025h43.55v43.55h-43.55z"/></g><g class="marking-critical-error-actor" data-actor="true" data-source-index="156"><path fill="#d97757" d="M956.625 1171.025h43.55v43.55h-43.55z"/></g><g class="marking-critical-error-actor" data-actor="true" data-source-index="157"><path fill="#d97757" d="M999.825 1171.025h43.55v43.55h-43.55z"/></g><g class="marking-critical-error-actor" data-actor="true" data-source-index="158"><path fill="#d97757" d="M1043.025 1171.025h43.55v43.55h-43.55z"/></g><g class="marking-critical-error-actor" data-actor="true" data-source-index="159"><path fill="#d97757" d="M571.025 1214.225h43.55v43.55h-43.55z"/></g><g class="marking-critical-error-actor" data-actor="true" data-source-index="160"><path fill="#d97757" d="M614.225 1214.225h43.55v43.55h-43.55z"/></g><g class="marking-critical-error-actor" data-actor="true" data-source-index="161"><path fill="#d97757" d="M656.625 1214.225h43.55v43.55h-43.55z"/></g><g class="marking-critical-error-actor" data-actor="true" data-source-index="162"><path fill="#d97757" d="M699.825 1214.225h43.55v43.55h-43.55z"/></g><g class="marking-critical-error-actor" data-actor="true" data-source-index="163"><path fill="#d97757" d="M743.025 1214.225h43.55v43.55h-43.55z"/></g><g class="marking-critical-error-actor" data-actor="true" data-source-index="164"><path fill="#d97757" d="M785.425 1214.225h43.55v43.55h-43.55z"/></g><g class="marking-critical-error-actor" data-actor="true" data-source-index="165"><path fill="#d97757" d="M828.625 1214.225h43.55v43.55h-43.55z"/></g><g class="marking-critical-error-actor" data-actor="true" data-source-index="166"><path fill="#d97757" d="M871.025 1214.225h43.55v43.55h-43.55z"/></g><g class="marking-critical-error-actor" data-actor="true" data-source-index="167"><path fill="#d97757" d="M914.225 1214.225h43.55v43.55h-43.55z"/></g><g class="marking-critical-error-actor" data-actor="true" data-source-index="168"><path fill="#d97757" d="M956.625 1214.225h43.55v43.55h-43.55z"/></g><g class="marking-critical-error-actor" data-actor="true" data-source-index="169"><path fill="#d97757" d="M999.825 1214.225h43.55v43.55h-43.55z"/></g><g class="marking-critical-error-actor" data-actor="true" data-source-index="170"><path fill="#d97757" d="M1043.025 1214.225h43.55v43.55h-43.55z"/></g><g class="marking-critical-error-actor" data-actor="true" data-source-index="171"><path fill="#d97757" d="M699.825 1256.625h43.55v43.55h-43.55z"/></g><g class="marking-critical-error-actor" data-actor="true" data-source-index="172"><path fill="#d97757" d="M743.025 1256.625h43.55v43.55h-43.55z"/></g><g class="marking-critical-error-actor" data-actor="true" data-source-index="173"><path fill="#d97757" d="M785.425 1256.625h43.55v43.55h-43.55z"/></g><g class="marking-critical-error-actor" data-actor="true" data-source-index="174"><path fill="#d97757" d="M828.625 1256.625h43.55v43.55h-43.55z"/></g><g class="marking-critical-error-actor" data-actor="true" data-source-index="175"><path fill="#d97757" d="M871.025 1256.625h43.55v43.55h-43.55z"/></g><g class="marking-critical-error-actor" data-actor="true" data-source-index="176"><path fill="#d97757" d="M914.225 1256.625h43.55v43.55h-43.55z"/></g><g class="marking-critical-error-actor" data-actor="true" data-source-index="177"><path fill="#d97757" d="M956.625 1256.625h43.55v43.55h-43.55z"/></g><g class="marking-critical-error-actor" data-actor="true" data-source-index="178"><path fill="#d97757" d="M999.825 1256.625h43.55v43.55h-43.55z"/></g><g class="marking-critical-error-actor" data-actor="true" data-source-index="179"><path fill="#d97757" d="M1043.025 1256.625h43.55v43.55h-43.55z"/></g><g class="marking-critical-error-actor" data-actor="true" data-source-index="180"><path fill="#d97757" d="M699.825 1299.825h43.55v43.55h-43.55z"/></g><g class="marking-critical-error-actor" data-actor="true" data-source-index="181"><path fill="#d97757" d="M743.025 1299.825h43.55v43.55h-43.55z"/></g><g class="marking-critical-error-actor" data-actor="true" data-source-index="182"><path fill="#d97757" d="M785.425 1299.825h43.55v43.55h-43.55z"/></g><g class="marking-critical-error-actor" data-actor="true" data-source-index="183"><path fill="#d97757" d="M828.625 1299.825h43.55v43.55h-43.55z"/></g><g class="marking-critical-error-actor" data-actor="true" data-source-index="184"><path fill="#d97757" d="M871.025 1299.825h43.55v43.55h-43.55z"/></g><g class="marking-critical-error-actor" data-actor="true" data-source-index="185"><path fill="#d97757" d="M914.225 1299.825h43.55v43.55h-43.55z"/></g><g class="marking-critical-error-actor" data-actor="true" data-source-index="186"><path fill="#d97757" d="M956.625 1299.825h43.55v43.55h-43.55z"/></g><g class="marking-critical-error-actor" data-actor="true" data-source-index="187"><path fill="#d97757" d="M999.825 1299.825h43.55v43.55h-43.55z"/></g><g class="marking-critical-error-actor" data-actor="true" data-source-index="188"><path fill="#d97757" d="M1043.025 1299.825h43.55v43.55h-43.55z"/></g><g class="marking-critical-error-actor" data-actor="true" data-source-index="189"><path fill="#d97757" d="M828.625 1343.025h43.55v43.55h-43.55z"/></g><g class="marking-critical-error-actor" data-actor="true" data-source-index="190"><path fill="#d97757" d="M1085.425 956.625h43.55v43.55h-43.55z"/></g><g class="marking-critical-error-actor" data-actor="true" data-source-index="191"><path fill="#2f2f38" d="M1085.425 999.825h43.55v43.55h-43.55z"/></g><g class="marking-critical-error-actor" data-actor="true" data-source-index="192"><path fill="#d97757" d="M1085.425 1043.025h43.55v43.55h-43.55z"/></g><g class="marking-critical-error-actor" data-actor="true" data-source-index="193"><path fill="#d97757" d="M1085.425 1128.625h43.55v43.55h-43.55z"/></g><g class="marking-critical-error-actor" data-actor="true" data-source-index="194"><path fill="#d97757" d="M1085.425 1171.025h43.55v43.55h-43.55z"/></g><g class="marking-critical-error-actor" data-actor="true" data-source-index="195"><path fill="#d97757" d="M1085.425 1214.225h43.55v43.55h-43.55z"/></g><g class="marking-critical-error-actor" data-actor="true" data-source-index="196"><path fill="#d97757" d="M1085.425 1256.625h43.55v43.55h-43.55z"/></g><g class="marking-critical-error-actor" data-actor="true" data-source-index="197"><path fill="#d97757" d="M1085.425 1299.825h43.55v43.55h-43.55z"/></g><g class="marking-critical-error-actor" data-actor="true" data-source-index="198"><path fill="#d97757" d="M1128.625 956.625h43.55v43.55h-43.55z"/></g><g class="marking-critical-error-actor" data-actor="true" data-source-index="199"><path fill="#d97757" d="M1128.625 999.825h43.55v43.55h-43.55z"/></g><g class="marking-critical-error-actor" data-actor="true" data-source-index="200"><path fill="#d97757" d="M1128.625 1085.425h43.55v43.55h-43.55z"/></g><g class="marking-critical-error-actor" data-actor="true" data-source-index="201"><path fill="#d97757" d="M1128.625 1128.625h43.55v43.55h-43.55z"/></g><g class="marking-critical-error-actor" data-actor="true" data-source-index="202"><path fill="#d97757" d="M1128.625 1171.025h43.55v43.55h-43.55z"/></g><g class="marking-critical-error-actor" data-actor="true" data-source-index="203"><path fill="#d97757" d="M1128.625 1214.225h43.55v43.55h-43.55z"/></g><g class="marking-critical-error-actor" data-actor="true" data-source-index="204"><path fill="#d97757" d="M1128.625 1256.625h43.55v43.55h-43.55z"/></g><g class="marking-critical-error-actor" data-actor="true" data-source-index="205"><path fill="#d97757" d="M1128.625 1299.825h43.55v43.55h-43.55z"/></g><g class="marking-critical-error-actor" data-actor="true" data-source-index="206"><path fill="#d97757" d="M1128.625 1343.025h43.55v43.55h-43.55z"/></g><g class="marking-critical-error-actor" data-actor="true" data-source-index="207"><path fill="#d97757" d="M1171.025 956.625h43.55v43.55h-43.55z"/></g><g class="marking-critical-error-actor" data-actor="true" data-source-index="208"><path fill="#2f2f38" d="M1171.025 999.825h43.55v43.55h-43.55z"/></g><g class="marking-critical-error-actor" data-actor="true" data-source-index="209"><path fill="#d97757" d="M1171.025 1043.025h43.55v43.55h-43.55z"/></g><g class="marking-critical-error-actor" data-actor="true" data-source-index="210"><path fill="#d97757" d="M1171.025 1128.625h43.55v43.55h-43.55z"/></g><g class="marking-critical-error-actor" data-actor="true" data-source-index="211"><path fill="#d97757" d="M1171.025 1171.025h43.55v43.55h-43.55z"/></g><g class="marking-critical-error-actor" data-actor="true" data-source-index="212"><path fill="#d97757" d="M1171.025 1214.225h43.55v43.55h-43.55z"/></g><g class="marking-critical-error-actor" data-actor="true" data-source-index="213"><path fill="#d97757" d="M1171.025 1256.625h43.55v43.55h-43.55z"/></g><g class="marking-critical-error-actor" data-actor="true" data-source-index="214"><path fill="#d97757" d="M1171.025 1299.825h43.55v43.55h-43.55z"/></g><g class="marking-critical-error-actor" data-actor="true" data-source-index="215"><path fill="#d97757" d="M1214.225 956.625h43.55v43.55h-43.55z"/></g><g class="marking-critical-error-actor" data-actor="true" data-source-index="216"><path fill="#d97757" d="M1214.225 999.825h43.55v43.55h-43.55z"/></g><g class="marking-critical-error-actor" data-actor="true" data-source-index="217"><path fill="#d97757" d="M1214.225 1043.025h43.55v43.55h-43.55z"/></g><g class="marking-critical-error-actor" data-actor="true" data-source-index="218"><path fill="#d97757" d="M1214.225 1085.425h43.55v43.55h-43.55z"/></g><g class="marking-critical-error-actor" data-actor="true" data-source-index="219"><path fill="#d97757" d="M1214.225 1128.625h43.55v43.55h-43.55z"/></g><g class="marking-critical-error-actor" data-actor="true" data-source-index="220"><path fill="#d97757" d="M1214.225 1171.025h43.55v43.55h-43.55z"/></g><g class="marking-critical-error-actor" data-actor="true" data-source-index="221"><path fill="#d97757" d="M1214.225 1214.225h43.55v43.55h-43.55z"/></g><g class="marking-critical-error-actor" data-actor="true" data-source-index="222"><path fill="#d97757" d="M1214.225 1256.625h43.55v43.55h-43.55z"/></g><g class="marking-critical-error-actor" data-actor="true" data-source-index="223"><path fill="#d97757" d="M1214.225 1299.825h43.55v43.55h-43.55z"/></g><g class="marking-critical-error-actor" data-actor="true" data-source-index="224"><path fill="#d97757" d="M1256.625 956.625h43.55v43.55h-43.55z"/></g><g class="marking-critical-error-actor" data-actor="true" data-source-index="225"><path fill="#d97757" d="M1256.625 999.825h43.55v43.55h-43.55z"/></g><g class="marking-critical-error-actor" data-actor="true" data-source-index="226"><path fill="#d97757" d="M1256.625 1043.025h43.55v43.55h-43.55z"/></g><g class="marking-critical-error-actor" data-actor="true" data-source-index="227"><path fill="#d97757" d="M1256.625 1085.425h43.55v43.55h-43.55z"/></g><g class="marking-critical-error-actor" data-actor="true" data-source-index="228"><path fill="#d97757" d="M1256.625 1128.625h43.55v43.55h-43.55z"/></g><g class="marking-critical-error-actor" data-actor="true" data-source-index="229"><path fill="#d97757" d="M1256.625 1171.025h43.55v43.55h-43.55z"/></g><g class="marking-critical-error-actor" data-actor="true" data-source-index="230"><path fill="#d97757" d="M1256.625 1214.225h43.55v43.55h-43.55z"/></g><g class="marking-critical-error-actor" data-actor="true" data-source-index="231"><path fill="#d97757" d="M1299.825 1214.225h43.55v43.55h-43.55z"/></g><g class="marking-critical-error-actor" data-actor="true" data-source-index="232"><path fill="#d97757" d="M1343.025 1214.225h43.55v43.55h-43.55z"/></g><g class="marking-critical-error-actor" data-actor="true" data-source-index="233"><path fill="#d97757" d="M1385.425 1214.225h43.55v43.55h-43.55z"/></g><g class="marking-critical-error-actor" data-actor="true" data-source-index="234"><path fill="#d97757" d="M1256.625 1256.625h43.55v43.55h-43.55z"/></g><g class="marking-critical-error-actor" data-actor="true" data-source-index="235"><path fill="#d97757" d="M1256.625 1299.825h43.55v43.55h-43.55z"/></g></svg>