<svg xmlns="http://www.w3.org/2000/svg" aria-labelledby="claude-orchestrating-title claude-orchestrating-desc" role="img" viewBox="0 0 160 140"><title id="claude-orchestrating-title">Claude community mascot orchestrating tasks</title><desc id="claude-orchestrating-desc">A fan-made terracotta coding character conducts three animated workflow cards through an agent pipeline.</desc><defs><linearGradient id="claude-orchestrating-body-gradient" x1=".1" x2=".85" y1="0" y2="1"><stop offset="0" stop-color="#f7b58e"/><stop offset=".52" stop-color="#e98452"/><stop offset="1" stop-color="#b7512a"/></linearGradient><linearGradient id="claude-orchestrating-limb-gradient" x1="0" x2="1" y1="0" y2="1"><stop offset="0" stop-color="#ea8f5e"/><stop offset="1" stop-color="#aa4524"/></linearGradient><radialGradient id="claude-orchestrating-shadow-gradient" cx="50%" cy="50%" r="50%"><stop offset="0" stop-color="#3c2118" stop-opacity=".34"/><stop offset="1" stop-color="#3c2118" stop-opacity="0"/></radialGradient><filter id="claude-orchestrating-soft-shadow" width="150%" height="160%" x="-25%" y="-25%"><feDropShadow dx="0" dy="2" flood-color="#552718" flood-opacity=".18" stdDeviation="2"/></filter></defs><style>@keyframes claude-orchestrating-body-sway{0%,to{transform:rotate(-1deg)}50%{transform:rotate(1.5deg)}}@keyframes claude-orchestrating-left-conduct{0%,to{transform:rotate(12deg)}50%{transform:rotate(-28deg)}}@keyframes claude-orchestrating-right-conduct{0%,to{transform:rotate(-10deg)}50%{transform:rotate(24deg)}}@keyframes claude-orchestrating-card-a{0%,to{transform:translate(0,0)}50%{transform:translate(8px,-5px)}}@keyframes claude-orchestrating-card-b{0%,to{transform:translate(0,0)}50%{transform:translate(-6px,4px)}}@keyframes claude-orchestrating-card-c{0%,to{transform:translate(0,0)}50%{transform:translate(4px,6px)}}@keyframes claude-orchestrating-shadow{0%,to{transform:scaleX(1);opacity:.34}50%{transform:scaleX(.96);opacity:.3}}@media (prefers-reduced-motion:reduce){[data-animated]{animation:none!important}}</style><ellipse cx="80" cy="122" fill="url(#claude-orchestrating-shadow-gradient)" data-animated="true" rx="38" ry="7" style="animation:claude-orchestrating-shadow 3.2s ease-in-out infinite;transform-box:view-box;transform-origin:80px 122px"/><g data-animated="true" style="animation:claude-orchestrating-card-a 3s ease-in-out infinite;transform-box:view-box;transform-origin:25px 40px"><rect width="36" height="24" x="8" y="24" fill="#fff7f1" stroke="#d97757" stroke-width="2" rx="7"/><circle cx="18" cy="34" r="3" fill="#d97757"/><path stroke="#8b5e4b" stroke-linecap="round" stroke-width="2" d="M25 32h12m-12 6h8"/></g><g data-animated="true" style="animation:claude-orchestrating-card-b 3.4s ease-in-out infinite;transform-box:view-box;transform-origin:133px 38px"><rect width="36" height="24" x="116" y="22" fill="#fff7f1" stroke="#d97757" stroke-width="2" rx="7"/><path fill="none" stroke="#4f8a62" stroke-linecap="round" stroke-linejoin="round" stroke-width="2.5" d="m125 34 4 4 8-9"/></g><g data-animated="true" style="animation:claude-orchestrating-card-c 3.8s ease-in-out infinite;transform-box:view-box;transform-origin:136px 92px"><rect width="33" height="22" x="119" y="82" fill="#fff7f1" stroke="#d97757" stroke-width="2" rx="7"/><path stroke="#8b5e4b" stroke-linecap="round" stroke-width="2" d="M127 90h16m-16 6h11"/></g><g data-animated="true" style="animation:claude-orchestrating-body-sway 3.2s ease-in-out infinite;transform-box:view-box;transform-origin:80px 108px"><g filter="url(#claude-orchestrating-soft-shadow)"><g aria-hidden="true"><path fill="url(#claude-orchestrating-limb-gradient)" d="M59 92c-2 9-1 17 4 21 4 3 9 0 9-5l-1-16Z"/><ellipse cx="66" cy="111" fill="#8d3921" rx="8.5" ry="4"/><path fill="url(#claude-orchestrating-limb-gradient)" d="m87 92-1 16c0 5 5 8 9 5 6-4 6-13 3-21Z"/><ellipse cx="93" cy="111" fill="#8d3921" rx="8.5" ry="4"/></g><g data-animated="true" style="animation:claude-orchestrating-left-conduct 1.6s ease-in-out infinite;transform-box:view-box;transform-origin:51px 64px"><path fill="url(#claude-orchestrating-limb-gradient)" d="M53 58c-12 1-20 8-18 17 2 7 9 9 15 4l10-11Z"/><circle cx="38" cy="74" r="5.5" fill="#d86d43"/><path stroke="#6b3a28" stroke-linecap="round" stroke-width="2.5" d="M34 68 24 56"/></g><g data-animated="true" style="animation:claude-orchestrating-right-conduct 1.6s ease-in-out infinite;transform-box:view-box;transform-origin:108px 64px"><path fill="url(#claude-orchestrating-limb-gradient)" d="M107 58c12 1 20 8 18 17-2 7-9 9-15 4l-10-11Z"/><circle cx="122" cy="74" r="5.5" fill="#d86d43"/><path stroke="#6b3a28" stroke-linecap="round" stroke-width="2.5" d="m126 68 10-12"/></g><rect width="64" height="62" x="48" y="38" fill="url(#claude-orchestrating-body-gradient)" rx="24"/><path fill="#ffd2b7" d="M54 48c11-10 35-12 49-1-12-4-30-2-42 6-4 3-7 2-7-5" opacity=".34"/><path fill="#8f3a20" d="M50 78c13 13 43 20 60-2v10c-6 10-17 14-31 14-15 0-25-5-29-14Z" opacity=".18"/><ellipse cx="68" cy="62" fill="#21150f" rx="5.6" ry="7"/><ellipse cx="91" cy="62" fill="#21150f" rx="5.6" ry="7"/><circle cx="66.4" cy="59.8" r="1.7" fill="#fff" opacity=".92"/><circle cx="89.4" cy="59.8" r="1.7" fill="#fff" opacity=".92"/><path fill="none" stroke="#71311d" stroke-linecap="round" stroke-width="3" d="M68 78c6 5 15 5 21 0"/><path fill="#fff3ea" d="m80 45 2.4 7.5 7.6-2.3-5.6 5.8 5.6 5.8-7.6-2.3L80 67l-2.4-7.5-7.6 2.3 5.6-5.8-5.6-5.8 7.6 2.3Z" opacity=".12"/></g></g></svg>