<svg xmlns="http://www.w3.org/2000/svg" width="400" height="400" aria-labelledby="examining-green-globe-title examining-green-globe-desc" data-motion-family="float" data-motion-preset="globe" data-pack="growth" data-source="svgs/mascots/examining-green-globe.svg" data-source-sha256="af8cde7473925559bc4abe1a4c54ca5e799f97ea65c5b3c6030e0f0cc6d246c7" overflow="hidden" role="img" shape-rendering="crispEdges" viewBox="0 0 2000 2000"><title id="examining-green-globe-title">Examining Green Globe</title><desc id="examining-green-globe-desc">The terracotta mascot examines the globe with a slow arc, attached-tool lag, and a discovery pause. The loop uses bounded anticipation, contact weight, and recovery inside the fixed frame.</desc><style>@keyframes examining-green-globe-actor-motion{0%,to{transform:translate(0,0) rotate(0deg) scale(1,1)}24%{transform:translate(7px,-22.624px) rotate(-1.3deg) scale(1.008,.992)}50%{transform:translate(0,-45.248px) rotate(1.6deg) scale(.996,1.012)}76%{transform:translate(-6px,-19.004px) rotate(-.9deg) scale(1,1)}}@keyframes examining-green-globe-shadow-motion{0%,to{transform:translateX(0) scaleX(1);opacity:.26}24%{transform:translateX(4.76px) scaleX(.943);opacity:.241}50%{transform:translateX(0) scaleX(.885);opacity:.222}76%{transform:translateX(-4.08px) scaleX(.952);opacity:.244}}@keyframes examining-green-globe-prop-motion{0%,to{transform:translate(0,0) rotate(0deg)}24%{transform:translate(-1.26px,2.715px) rotate(.286deg)}50%{transform:translate(0,5.43px) rotate(-.352deg)}76%{transform:translate(1.08px,2.28px) rotate(.198deg)}}.examining-green-globe-actor{animation:examining-green-globe-actor-motion 5400ms linear infinite;transform-box:view-box;transform-origin:1107.6px 1279.375px}.examining-green-globe-prop{animation:examining-green-globe-prop-motion 5400ms linear infinite;transform-box:view-box;transform-origin:1107.6px 1043.2px}@media (prefers-reduced-motion:reduce){.examining-green-globe-actor,.examining-green-globe-prop{animation:none!important;transform:none!important}}</style><ellipse cx="1107.6" cy="1303.375" fill="#2f2f38" data-shadow="true" opacity=".26" rx="277.077" ry="23.953" style="animation:examining-green-globe-shadow-motion 5400ms linear infinite;transform-box:view-box;transform-origin:1107.6px 1303.375px"/><g class="examining-green-globe-prop" data-prop="true" data-source-index="0"><path fill="#aaff15" d="M614.225 678.225h43.55v43.55h-43.55z"/></g><g class="examining-green-globe-prop" data-prop="true" data-source-index="1"><path fill="#aaff15" d="M656.625 678.225h43.55v43.55h-43.55z"/></g><g class="examining-green-globe-prop" data-prop="true" data-source-index="2"><path fill="#aaff15" d="M699.825 678.225h43.55v43.55h-43.55z"/></g><g class="examining-green-globe-prop" data-prop="true" data-source-index="3"><path fill="#aaff15" d="M571.025 721.425h43.55v43.55h-43.55z"/></g><g class="examining-green-globe-prop" data-prop="true" data-source-index="4"><path fill="#17aaa3" d="M614.225 721.425h43.55v43.55h-43.55z"/></g><g class="examining-green-globe-prop" data-prop="true" data-source-index="5"><path fill="#17aaa3" d="M656.625 721.425h43.55v43.55h-43.55z"/></g><g class="examining-green-globe-prop" data-prop="true" data-source-index="6"><path fill="#17aaa3" d="M699.825 721.425h43.55v43.55h-43.55z"/></g><g class="examining-green-globe-prop" data-prop="true" data-source-index="7"><path fill="#aaff15" d="M743.025 721.425h43.55v43.55h-43.55z"/></g><g class="examining-green-globe-prop" data-prop="true" data-source-index="8"><path fill="#17aaa3" d="M571.025 763.825h43.55v43.55h-43.55z"/></g><g class="examining-green-globe-prop" data-prop="true" data-source-index="9"><path fill="#68e0bb" d="M614.225 763.825h43.55v43.55h-43.55z"/></g><g class="examining-green-globe-prop" data-prop="true" data-source-index="10"><path fill="#17aaa3" d="M656.625 763.825h43.55v43.55h-43.55z"/></g><g class="examining-green-globe-prop" data-prop="true" data-source-index="11"><path fill="#68e0bb" d="M699.825 763.825h43.55v43.55h-43.55z"/></g><g class="examining-green-globe-prop" data-prop="true" data-source-index="12"><path fill="#17aaa3" d="M743.025 763.825h43.55v43.55h-43.55z"/></g><g class="examining-green-globe-prop" data-prop="true" data-source-index="13"><path fill="#aaff15" d="M785.425 763.825h43.55v43.55h-43.55z"/></g><g class="examining-green-globe-prop" data-prop="true" data-source-index="14"><path fill="#68e0bb" d="M571.025 807.025h43.55v43.55h-43.55z"/></g><g class="examining-green-globe-prop" data-prop="true" data-source-index="15"><path fill="#17aaa3" d="M614.225 807.025h43.55v43.55h-43.55z"/></g><g class="examining-green-globe-prop" data-prop="true" data-source-index="16"><path fill="#17aaa3" d="M656.625 807.025h43.55v43.55h-43.55z"/></g><g class="examining-green-globe-prop" data-prop="true" data-source-index="17"><path fill="#17aaa3" d="M699.825 807.025h43.55v43.55h-43.55z"/></g><g class="examining-green-globe-prop" data-prop="true" data-source-index="18"><path fill="#68e0bb" d="M743.025 807.025h43.55v43.55h-43.55z"/></g><g class="examining-green-globe-prop" data-prop="true" data-source-index="19"><path fill="#aaff15" d="M785.425 807.025h43.55v43.55h-43.55z"/></g><g class="examining-green-globe-prop" data-prop="true" data-source-index="20"><path fill="#17aaa3" d="M571.025 850.225h43.55v43.55h-43.55z"/></g><g class="examining-green-globe-prop" data-prop="true" data-source-index="21"><path fill="#68e0bb" d="M614.225 850.225h43.55v43.55h-43.55z"/></g><g class="examining-green-globe-prop" data-prop="true" data-source-index="22"><path fill="#17aaa3" d="M656.625 850.225h43.55v43.55h-43.55z"/></g><g class="examining-green-globe-prop" data-prop="true" data-source-index="23"><path fill="#68e0bb" d="M699.825 850.225h43.55v43.55h-43.55z"/></g><g class="examining-green-globe-prop" data-prop="true" data-source-index="24"><path fill="#17aaa3" d="M743.025 850.225h43.55v43.55h-43.55z"/></g><g class="examining-green-globe-prop" data-prop="true" data-source-index="25"><path fill="#aaff15" d="M785.425 850.225h43.55v43.55h-43.55z"/></g><g class="examining-green-globe-prop" data-prop="true" data-source-index="26"><path fill="#aaff15" d="M571.025 892.625h43.55v43.55h-43.55z"/></g><g class="examining-green-globe-prop" data-prop="true" data-source-index="27"><path fill="#17aaa3" d="M614.225 892.625h43.55v43.55h-43.55z"/></g><g class="examining-green-globe-prop" data-prop="true" data-source-index="28"><path fill="#17aaa3" d="M656.625 892.625h43.55v43.55h-43.55z"/></g><g class="examining-green-globe-prop" data-prop="true" data-source-index="29"><path fill="#17aaa3" d="M699.825 892.625h43.55v43.55h-43.55z"/></g><g class="examining-green-globe-prop" data-prop="true" data-source-index="30"><path fill="#aaff15" d="M743.025 892.625h43.55v43.55h-43.55z"/></g><g class="examining-green-globe-actor" data-actor="true" data-source-index="31"><path fill="#2f2f38" d="M999.825 892.625h43.55v43.55h-43.55z"/></g><g class="examining-green-globe-actor" data-actor="true" data-source-index="32"><path fill="#d97757" d="M1299.825 892.625h43.55v43.55h-43.55z"/></g><g class="examining-green-globe-prop" data-prop="true" data-source-index="33"><path fill="#aaff15" d="M614.225 935.825h43.55v43.55h-43.55z"/></g><g class="examining-green-globe-prop" data-prop="true" data-source-index="34"><path fill="#aaff15" d="M656.625 935.825h43.55v43.55h-43.55z"/></g><g class="examining-green-globe-prop" data-prop="true" data-source-index="35"><path fill="#aaff15" d="M699.825 935.825h43.55v43.55h-43.55z"/></g><g class="examining-green-globe-prop" data-prop="true" data-source-index="36"><path fill="#3b3bcc" d="M785.425 935.825h43.55v43.55h-43.55z"/></g><g class="examining-green-globe-actor" data-actor="true" data-source-index="37"><path fill="#d97757" d="M956.625 935.825h43.55v43.55h-43.55z"/></g><g class="examining-green-globe-actor" data-actor="true" data-source-index="38"><path fill="#d97757" d="M1043.025 935.825h43.55v43.55h-43.55z"/></g><g class="examining-green-globe-actor" data-actor="true" data-source-index="39"><path fill="#d97757" d="M1256.625 935.825h43.55v43.55h-43.55z"/></g><g class="examining-green-globe-actor" data-actor="true" data-source-index="40"><path fill="#d97757" d="M1343.025 935.825h43.55v43.55h-43.55z"/></g><g class="examining-green-globe-actor" data-actor="true" data-source-index="41"><path fill="#d97757" d="M743.025 1107.025h43.55v43.55h-43.55z"/></g><g class="examining-green-globe-actor" data-actor="true" data-source-index="42"><path fill="#d97757" d="M785.425 1107.025h43.55v43.55h-43.55z"/></g><g class="examining-green-globe-actor" data-actor="true" data-source-index="43"><path fill="#d97757" d="M828.625 1107.025h43.55v43.55h-43.55z"/></g><g class="examining-green-globe-actor" data-actor="true" data-source-index="44"><path fill="#d97757" d="M871.025 1192.625h43.55v43.55h-43.55z"/></g><g class="examining-green-globe-actor" data-actor="true" data-source-index="45"><path fill="#d97757" d="M956.625 1192.625h43.55v43.55h-43.55z"/></g><g class="examining-green-globe-prop" data-prop="true" data-source-index="46"><path fill="#3b3bcc" d="M1043.025 1192.625h43.55v43.55h-43.55z"/></g><g class="examining-green-globe-actor" data-actor="true" data-source-index="47"><path fill="#d97757" d="M1085.425 1192.625h43.55v43.55h-43.55z"/></g><g class="examining-green-globe-actor" data-actor="true" data-source-index="48"><path fill="#d97757" d="M1128.625 1192.625h43.55v43.55h-43.55z"/></g><g class="examining-green-globe-actor" data-actor="true" data-source-index="49"><path fill="#d97757" d="M1171.025 1192.625h43.55v43.55h-43.55z"/></g><g class="examining-green-globe-actor" data-actor="true" data-source-index="50"><path fill="#d97757" d="M1343.025 1192.625h43.55v43.55h-43.55z"/></g><g class="examining-green-globe-actor" data-actor="true" data-source-index="51"><path fill="#d97757" d="M1428.625 1192.625h43.55v43.55h-43.55z"/></g><g class="examining-green-globe-actor" data-actor="true" data-source-index="52"><path fill="#d97757" d="M871.025 1235.825h43.55v43.55h-43.55z"/></g><g class="examining-green-globe-actor" data-actor="true" data-source-index="53"><path fill="#d97757" d="M956.625 1235.825h43.55v43.55h-43.55z"/></g><g class="examining-green-globe-prop" data-prop="true" data-source-index="54"><path fill="#3b3bcc" d="M1085.425 1235.825h43.55v43.55h-43.55z"/></g><g class="examining-green-globe-actor" data-actor="true" data-source-index="55"><path fill="#d97757" d="M1128.625 1235.825h43.55v43.55h-43.55z"/></g><g class="examining-green-globe-actor" data-actor="true" data-source-index="56"><path fill="#d97757" d="M1171.025 1235.825h43.55v43.55h-43.55z"/></g><g class="examining-green-globe-actor" data-actor="true" data-source-index="57"><path fill="#d97757" d="M1343.025 1235.825h43.55v43.55h-43.55z"/></g><g class="examining-green-globe-actor" data-actor="true" data-source-index="58"><path fill="#d97757" d="M1428.625 1235.825h43.55v43.55h-43.55z"/></g><g class="examining-green-globe-prop" data-prop="true" data-source-index="59"><path fill="#aaff15" d="M528.625 763.825h43.55v43.55h-43.55z"/></g><g class="examining-green-globe-prop" data-prop="true" data-source-index="60"><path fill="#aaff15" d="M528.625 807.025h43.55v43.55h-43.55z"/></g><g class="examining-green-globe-prop" data-prop="true" data-source-index="61"><path fill="#aaff15" d="M528.625 850.225h43.55v43.55h-43.55z"/></g><g class="examining-green-globe-actor" data-actor="true" data-source-index="62"><path fill="#d97757" d="M871.025 807.025h43.55v43.55h-43.55z"/></g><g class="examining-green-globe-actor" data-actor="true" data-source-index="63"><path fill="#d97757" d="M914.225 807.025h43.55v43.55h-43.55z"/></g><g class="examining-green-globe-actor" data-actor="true" data-source-index="64"><path fill="#d97757" d="M956.625 807.025h43.55v43.55h-43.55z"/></g><g class="examining-green-globe-actor" data-actor="true" data-source-index="65"><path fill="#d97757" d="M999.825 807.025h43.55v43.55h-43.55z"/></g><g class="examining-green-globe-actor" data-actor="true" data-source-index="66"><path fill="#d97757" d="M1043.025 807.025h43.55v43.55h-43.55z"/></g><g class="examining-green-globe-actor" data-actor="true" data-source-index="67"><path fill="#d97757" d="M1085.425 807.025h43.55v43.55h-43.55z"/></g><g class="examining-green-globe-actor" data-actor="true" data-source-index="68"><path fill="#d97757" d="M1128.625 807.025h43.55v43.55h-43.55z"/></g><g class="examining-green-globe-actor" data-actor="true" data-source-index="69"><path fill="#d97757" d="M1171.025 807.025h43.55v43.55h-43.55z"/></g><g class="examining-green-globe-actor" data-actor="true" data-source-index="70"><path fill="#d97757" d="M1214.225 807.025h43.55v43.55h-43.55z"/></g><g class="examining-green-globe-actor" data-actor="true" data-source-index="71"><path fill="#d97757" d="M871.025 850.225h43.55v43.55h-43.55z"/></g><g class="examining-green-globe-actor" data-actor="true" data-source-index="72"><path fill="#d97757" d="M914.225 850.225h43.55v43.55h-43.55z"/></g><g class="examining-green-globe-actor" data-actor="true" data-source-index="73"><path fill="#d97757" d="M956.625 850.225h43.55v43.55h-43.55z"/></g><g class="examining-green-globe-actor" data-actor="true" data-source-index="74"><path fill="#d97757" d="M999.825 850.225h43.55v43.55h-43.55z"/></g><g class="examining-green-globe-actor" data-actor="true" data-source-index="75"><path fill="#d97757" d="M1043.025 850.225h43.55v43.55h-43.55z"/></g><g class="examining-green-globe-actor" data-actor="true" data-source-index="76"><path fill="#d97757" d="M1085.425 850.225h43.55v43.55h-43.55z"/></g><g class="examining-green-globe-actor" data-actor="true" data-source-index="77"><path fill="#d97757" d="M1128.625 850.225h43.55v43.55h-43.55z"/></g><g class="examining-green-globe-actor" data-actor="true" data-source-index="78"><path fill="#d97757" d="M1171.025 850.225h43.55v43.55h-43.55z"/></g><g class="examining-green-globe-actor" data-actor="true" data-source-index="79"><path fill="#d97757" d="M1214.225 850.225h43.55v43.55h-43.55z"/></g><g class="examining-green-globe-actor" data-actor="true" data-source-index="80"><path fill="#d97757" d="M871.025 892.625h43.55v43.55h-43.55z"/></g><g class="examining-green-globe-actor" data-actor="true" data-source-index="81"><path fill="#d97757" d="M914.225 892.625h43.55v43.55h-43.55z"/></g><g class="examining-green-globe-actor" data-actor="true" data-source-index="82"><path fill="#d97757" d="M956.625 892.625h43.55v43.55h-43.55z"/></g><g class="examining-green-globe-actor" data-actor="true" data-source-index="83"><path fill="#d97757" d="M1043.025 892.625h43.55v43.55h-43.55z"/></g><g class="examining-green-globe-actor" data-actor="true" data-source-index="84"><path fill="#d97757" d="M1085.425 892.625h43.55v43.55h-43.55z"/></g><g class="examining-green-globe-actor" data-actor="true" data-source-index="85"><path fill="#d97757" d="M1128.625 892.625h43.55v43.55h-43.55z"/></g><g class="examining-green-globe-actor" data-actor="true" data-source-index="86"><path fill="#d97757" d="M1171.025 892.625h43.55v43.55h-43.55z"/></g><g class="examining-green-globe-actor" data-actor="true" data-source-index="87"><path fill="#2f2f38" d="M1214.225 892.625h43.55v43.55h-43.55z"/></g><g class="examining-green-globe-actor" data-actor="true" data-source-index="88"><path fill="#d97757" d="M871.025 935.825h43.55v43.55h-43.55z"/></g><g class="examining-green-globe-actor" data-actor="true" data-source-index="89"><path fill="#d97757" d="M914.225 935.825h43.55v43.55h-43.55z"/></g><g class="examining-green-globe-actor" data-actor="true" data-source-index="90"><path fill="#d97757" d="M999.825 935.825h43.55v43.55h-43.55z"/></g><g class="examining-green-globe-actor" data-actor="true" data-source-index="91"><path fill="#d97757" d="M1085.425 935.825h43.55v43.55h-43.55z"/></g><g class="examining-green-globe-actor" data-actor="true" data-source-index="92"><path fill="#d97757" d="M1128.625 935.825h43.55v43.55h-43.55z"/></g><g class="examining-green-globe-actor" data-actor="true" data-source-index="93"><path fill="#d97757" d="M1171.025 935.825h43.55v43.55h-43.55z"/></g><g class="examining-green-globe-actor" data-actor="true" data-source-index="94"><path fill="#d97757" d="M1214.225 935.825h43.55v43.55h-43.55z"/></g><g class="examining-green-globe-prop" data-prop="true" data-source-index="95"><path fill="#3b3bcc" d="M828.625 978.225h43.55v43.55h-43.55z"/></g><g class="examining-green-globe-actor" data-actor="true" data-source-index="96"><path fill="#d97757" d="M871.025 978.225h43.55v43.55h-43.55z"/></g><g class="examining-green-globe-actor" data-actor="true" data-source-index="97"><path fill="#d97757" d="M914.225 978.225h43.55v43.55h-43.55z"/></g><g class="examining-green-globe-actor" data-actor="true" data-source-index="98"><path fill="#d97757" d="M956.625 978.225h43.55v43.55h-43.55z"/></g><g class="examining-green-globe-actor" data-actor="true" data-source-index="99"><path fill="#d97757" d="M999.825 978.225h43.55v43.55h-43.55z"/></g><g class="examining-green-globe-actor" data-actor="true" data-source-index="100"><path fill="#d97757" d="M1043.025 978.225h43.55v43.55h-43.55z"/></g><g class="examining-green-globe-actor" data-actor="true" data-source-index="101"><path fill="#fff" d="M1085.425 978.225h43.55v43.55h-43.55z"/></g><g class="examining-green-globe-actor" data-actor="true" data-source-index="102"><path fill="#fff" d="M1128.625 978.225h43.55v43.55h-43.55z"/></g><g class="examining-green-globe-actor" data-actor="true" data-source-index="103"><path fill="#d97757" d="M1171.025 978.225h43.55v43.55h-43.55z"/></g><g class="examining-green-globe-actor" data-actor="true" data-source-index="104"><path fill="#d97757" d="M1214.225 978.225h43.55v43.55h-43.55z"/></g><g class="examining-green-globe-actor" data-actor="true" data-source-index="105"><path fill="#d97757" d="M743.025 1021.425h43.55v43.55h-43.55z"/></g><g class="examining-green-globe-actor" data-actor="true" data-source-index="106"><path fill="#d97757" d="M785.425 1021.425h43.55v43.55h-43.55z"/></g><g class="examining-green-globe-actor" data-actor="true" data-source-index="107"><path fill="#d97757" d="M828.625 1021.425h43.55v43.55h-43.55z"/></g><g class="examining-green-globe-prop" data-prop="true" data-source-index="108"><path fill="#3b3bcc" d="M871.025 1021.425h43.55v43.55h-43.55z"/></g><g class="examining-green-globe-actor" data-actor="true" data-source-index="109"><path fill="#d97757" d="M914.225 1021.425h43.55v43.55h-43.55z"/></g><g class="examining-green-globe-actor" data-actor="true" data-source-index="110"><path fill="#d97757" d="M956.625 1021.425h43.55v43.55h-43.55z"/></g><g class="examining-green-globe-actor" data-actor="true" data-source-index="111"><path fill="#d97757" d="M999.825 1021.425h43.55v43.55h-43.55z"/></g><g class="examining-green-globe-actor" data-actor="true" data-source-index="112"><path fill="#d97757" d="M1043.025 1021.425h43.55v43.55h-43.55z"/></g><g class="examining-green-globe-actor" data-actor="true" data-source-index="113"><path fill="#d97757" d="M1085.425 1021.425h43.55v43.55h-43.55z"/></g><g class="examining-green-globe-actor" data-actor="true" data-source-index="114"><path fill="#d97757" d="M1128.625 1021.425h43.55v43.55h-43.55z"/></g><g class="examining-green-globe-actor" data-actor="true" data-source-index="115"><path fill="#d97757" d="M1171.025 1021.425h43.55v43.55h-43.55z"/></g><g class="examining-green-globe-actor" data-actor="true" data-source-index="116"><path fill="#d97757" d="M1214.225 1021.425h43.55v43.55h-43.55z"/></g><g class="examining-green-globe-actor" data-actor="true" data-source-index="117"><path fill="#d97757" d="M743.025 1063.825h43.55v43.55h-43.55z"/></g><g class="examining-green-globe-actor" data-actor="true" data-source-index="118"><path fill="#d97757" d="M785.425 1063.825h43.55v43.55h-43.55z"/></g><g class="examining-green-globe-actor" data-actor="true" data-source-index="119"><path fill="#d97757" d="M828.625 1063.825h43.55v43.55h-43.55z"/></g><g class="examining-green-globe-actor" data-actor="true" data-source-index="120"><path fill="#d97757" d="M871.025 1063.825h43.55v43.55h-43.55z"/></g><g class="examining-green-globe-prop" data-prop="true" data-source-index="121"><path fill="#3b3bcc" d="M914.225 1063.825h43.55v43.55h-43.55z"/></g><g class="examining-green-globe-actor" data-actor="true" data-source-index="122"><path fill="#d97757" d="M956.625 1063.825h43.55v43.55h-43.55z"/></g><g class="examining-green-globe-actor" data-actor="true" data-source-index="123"><path fill="#d97757" d="M999.825 1063.825h43.55v43.55h-43.55z"/></g><g class="examining-green-globe-actor" data-actor="true" data-source-index="124"><path fill="#d97757" d="M1043.025 1063.825h43.55v43.55h-43.55z"/></g><g class="examining-green-globe-actor" data-actor="true" data-source-index="125"><path fill="#d97757" d="M1085.425 1063.825h43.55v43.55h-43.55z"/></g><g class="examining-green-globe-actor" data-actor="true" data-source-index="126"><path fill="#d97757" d="M1128.625 1063.825h43.55v43.55h-43.55z"/></g><g class="examining-green-globe-actor" data-actor="true" data-source-index="127"><path fill="#d97757" d="M1171.025 1063.825h43.55v43.55h-43.55z"/></g><g class="examining-green-globe-actor" data-actor="true" data-source-index="128"><path fill="#d97757" d="M1214.225 1063.825h43.55v43.55h-43.55z"/></g><g class="examining-green-globe-actor" data-actor="true" data-source-index="129"><path fill="#d97757" d="M871.025 1107.025h43.55v43.55h-43.55z"/></g><g class="examining-green-globe-actor" data-actor="true" data-source-index="130"><path fill="#d97757" d="M914.225 1107.025h43.55v43.55h-43.55z"/></g><g class="examining-green-globe-prop" data-prop="true" data-source-index="131"><path fill="#3b3bcc" d="M956.625 1107.025h43.55v43.55h-43.55z"/></g><g class="examining-green-globe-actor" data-actor="true" data-source-index="132"><path fill="#d97757" d="M999.825 1107.025h43.55v43.55h-43.55z"/></g><g class="examining-green-globe-actor" data-actor="true" data-source-index="133"><path fill="#d97757" d="M1043.025 1107.025h43.55v43.55h-43.55z"/></g><g class="examining-green-globe-actor" data-actor="true" data-source-index="134"><path fill="#d97757" d="M1085.425 1107.025h43.55v43.55h-43.55z"/></g><g class="examining-green-globe-actor" data-actor="true" data-source-index="135"><path fill="#d97757" d="M1128.625 1107.025h43.55v43.55h-43.55z"/></g><g class="examining-green-globe-actor" data-actor="true" data-source-index="136"><path fill="#d97757" d="M1171.025 1107.025h43.55v43.55h-43.55z"/></g><g class="examining-green-globe-actor" data-actor="true" data-source-index="137"><path fill="#d97757" d="M1214.225 1107.025h43.55v43.55h-43.55z"/></g><g class="examining-green-globe-actor" data-actor="true" data-source-index="138"><path fill="#d97757" d="M871.025 1149.425h43.55v43.55h-43.55z"/></g><g class="examining-green-globe-actor" data-actor="true" data-source-index="139"><path fill="#d97757" d="M914.225 1149.425h43.55v43.55h-43.55z"/></g><g class="examining-green-globe-actor" data-actor="true" data-source-index="140"><path fill="#d97757" d="M956.625 1149.425h43.55v43.55h-43.55z"/></g><g class="examining-green-globe-prop" data-prop="true" data-source-index="141"><path fill="#3b3bcc" d="M999.825 1149.425h43.55v43.55h-43.55z"/></g><g class="examining-green-globe-actor" data-actor="true" data-source-index="142"><path fill="#d97757" d="M1043.025 1149.425h43.55v43.55h-43.55z"/></g><g class="examining-green-globe-actor" data-actor="true" data-source-index="143"><path fill="#d97757" d="M1085.425 1149.425h43.55v43.55h-43.55z"/></g><g class="examining-green-globe-actor" data-actor="true" data-source-index="144"><path fill="#d97757" d="M1128.625 1149.425h43.55v43.55h-43.55z"/></g><g class="examining-green-globe-actor" data-actor="true" data-source-index="145"><path fill="#d97757" d="M1171.025 1149.425h43.55v43.55h-43.55z"/></g><g class="examining-green-globe-actor" data-actor="true" data-source-index="146"><path fill="#d97757" d="M1214.225 1149.425h43.55v43.55h-43.55z"/></g><g class="examining-green-globe-actor" data-actor="true" data-source-index="147"><path fill="#d97757" d="M1256.625 807.025h43.55v43.55h-43.55z"/></g><g class="examining-green-globe-actor" data-actor="true" data-source-index="148"><path fill="#d97757" d="M1256.625 850.225h43.55v43.55h-43.55z"/></g><g class="examining-green-globe-actor" data-actor="true" data-source-index="149"><path fill="#d97757" d="M1256.625 892.625h43.55v43.55h-43.55z"/></g><g class="examining-green-globe-actor" data-actor="true" data-source-index="150"><path fill="#d97757" d="M1256.625 978.225h43.55v43.55h-43.55z"/></g><g class="examining-green-globe-actor" data-actor="true" data-source-index="151"><path fill="#d97757" d="M1256.625 1021.425h43.55v43.55h-43.55z"/></g><g class="examining-green-globe-actor" data-actor="true" data-source-index="152"><path fill="#d97757" d="M1256.625 1063.825h43.55v43.55h-43.55z"/></g><g class="examining-green-globe-actor" data-actor="true" data-source-index="153"><path fill="#d97757" d="M1256.625 1107.025h43.55v43.55h-43.55z"/></g><g class="examining-green-globe-actor" data-actor="true" data-source-index="154"><path fill="#d97757" d="M1256.625 1149.425h43.55v43.55h-43.55z"/></g><g class="examining-green-globe-actor" data-actor="true" data-source-index="155"><path fill="#d97757" d="M1299.825 807.025h43.55v43.55h-43.55z"/></g><g class="examining-green-globe-actor" data-actor="true" data-source-index="156"><path fill="#d97757" d="M1299.825 850.225h43.55v43.55h-43.55z"/></g><g class="examining-green-globe-actor" data-actor="true" data-source-index="157"><path fill="#d97757" d="M1299.825 935.825h43.55v43.55h-43.55z"/></g><g class="examining-green-globe-actor" data-actor="true" data-source-index="158"><path fill="#d97757" d="M1299.825 978.225h43.55v43.55h-43.55z"/></g><g class="examining-green-globe-actor" data-actor="true" data-source-index="159"><path fill="#d97757" d="M1299.825 1021.425h43.55v43.55h-43.55z"/></g><g class="examining-green-globe-actor" data-actor="true" data-source-index="160"><path fill="#d97757" d="M1299.825 1063.825h43.55v43.55h-43.55z"/></g><g class="examining-green-globe-actor" data-actor="true" data-source-index="161"><path fill="#d97757" d="M1299.825 1107.025h43.55v43.55h-43.55z"/></g><g class="examining-green-globe-actor" data-actor="true" data-source-index="162"><path fill="#d97757" d="M1299.825 1149.425h43.55v43.55h-43.55z"/></g><g class="examining-green-globe-actor" data-actor="true" data-source-index="163"><path fill="#d97757" d="M1343.025 807.025h43.55v43.55h-43.55z"/></g><g class="examining-green-globe-actor" data-actor="true" data-source-index="164"><path fill="#d97757" d="M1343.025 850.225h43.55v43.55h-43.55z"/></g><g class="examining-green-globe-actor" data-actor="true" data-source-index="165"><path fill="#d97757" d="M1343.025 892.625h43.55v43.55h-43.55z"/></g><g class="examining-green-globe-actor" data-actor="true" data-source-index="166"><path fill="#d97757" d="M1343.025 978.225h43.55v43.55h-43.55z"/></g><g class="examining-green-globe-actor" data-actor="true" data-source-index="167"><path fill="#d97757" d="M1343.025 1021.425h43.55v43.55h-43.55z"/></g><g class="examining-green-globe-actor" data-actor="true" data-source-index="168"><path fill="#d97757" d="M1343.025 1063.825h43.55v43.55h-43.55z"/></g><g class="examining-green-globe-actor" data-actor="true" data-source-index="169"><path fill="#d97757" d="M1343.025 1107.025h43.55v43.55h-43.55z"/></g><g class="examining-green-globe-actor" data-actor="true" data-source-index="170"><path fill="#d97757" d="M1343.025 1149.425h43.55v43.55h-43.55z"/></g><g class="examining-green-globe-actor" data-actor="true" data-source-index="171"><path fill="#d97757" d="M1385.425 807.025h43.55v43.55h-43.55z"/></g><g class="examining-green-globe-actor" data-actor="true" data-source-index="172"><path fill="#d97757" d="M1385.425 850.225h43.55v43.55h-43.55z"/></g><g class="examining-green-globe-actor" data-actor="true" data-source-index="173"><path fill="#d97757" d="M1385.425 892.625h43.55v43.55h-43.55z"/></g><g class="examining-green-globe-actor" data-actor="true" data-source-index="174"><path fill="#d97757" d="M1385.425 935.825h43.55v43.55h-43.55z"/></g><g class="examining-green-globe-actor" data-actor="true" data-source-index="175"><path fill="#d97757" d="M1385.425 978.225h43.55v43.55h-43.55z"/></g><g class="examining-green-globe-actor" data-actor="true" data-source-index="176"><path fill="#d97757" d="M1385.425 1021.425h43.55v43.55h-43.55z"/></g><g class="examining-green-globe-actor" data-actor="true" data-source-index="177"><path fill="#d97757" d="M1385.425 1063.825h43.55v43.55h-43.55z"/></g><g class="examining-green-globe-actor" data-actor="true" data-source-index="178"><path fill="#d97757" d="M1385.425 1107.025h43.55v43.55h-43.55z"/></g><g class="examining-green-globe-actor" data-actor="true" data-source-index="179"><path fill="#d97757" d="M1385.425 1149.425h43.55v43.55h-43.55z"/></g><g class="examining-green-globe-actor" data-actor="true" data-source-index="180"><path fill="#d97757" d="M1428.625 807.025h43.55v43.55h-43.55z"/></g><g class="examining-green-globe-actor" data-actor="true" data-source-index="181"><path fill="#d97757" d="M1428.625 850.225h43.55v43.55h-43.55z"/></g><g class="examining-green-globe-actor" data-actor="true" data-source-index="182"><path fill="#d97757" d="M1428.625 892.625h43.55v43.55h-43.55z"/></g><g class="examining-green-globe-actor" data-actor="true" data-source-index="183"><path fill="#d97757" d="M1428.625 935.825h43.55v43.55h-43.55z"/></g><g class="examining-green-globe-actor" data-actor="true" data-source-index="184"><path fill="#d97757" d="M1428.625 978.225h43.55v43.55h-43.55z"/></g><g class="examining-green-globe-actor" data-actor="true" data-source-index="185"><path fill="#d97757" d="M1428.625 1021.425h43.55v43.55h-43.55z"/></g><g class="examining-green-globe-actor" data-actor="true" data-source-index="186"><path fill="#d97757" d="M1428.625 1063.825h43.55v43.55h-43.55z"/></g><g class="examining-green-globe-actor" data-actor="true" data-source-index="187"><path fill="#d97757" d="M1428.625 1107.025h43.55v43.55h-43.55z"/></g><g class="examining-green-globe-actor" data-actor="true" data-source-index="188"><path fill="#d97757" d="M1428.625 1149.425h43.55v43.55h-43.55z"/></g></svg>