<svg xmlns="http://www.w3.org/2000/svg" width="400" height="400" aria-labelledby="in-constant-loop-title in-constant-loop-desc" data-motion-family="orbit" data-motion-preset="loop" data-pack="growth" data-source="svgs/mascots/in-constant-loop.svg" data-source-sha256="1f080db46d6894e7c27e4a686c82f4cb6ff8dc1aee7511e07576eb7882459460" overflow="hidden" role="img" shape-rendering="crispEdges" viewBox="0 0 2000 2000"><title id="in-constant-loop-title">In Constant Loop</title><desc id="in-constant-loop-desc">The terracotta mascot follows the repeating path with controlled orbit timing and a visible reset beat. The loop uses bounded anticipation, contact weight, and recovery inside the fixed frame.</desc><style>@keyframes in-constant-loop-actor-motion{0%,to{transform:translate(0,0) rotate(0deg) scale(1,1)}25%{transform:translate(43.022px,-23.844px) rotate(1.8deg) scale(1,1)}50%{transform:translate(0,-43.353px) rotate(0deg) scale(1,1)}75%{transform:translate(-43.022px,-23.844px) rotate(-1.8deg) scale(1,1)}}@keyframes in-constant-loop-shadow-motion{0%,to{transform:translateX(0) scaleX(1);opacity:.26}25%{transform:translateX(29.255px) scaleX(.939);opacity:.24}50%{transform:translateX(0) scaleX(.89);opacity:.223}75%{transform:translateX(-29.255px) scaleX(.939);opacity:.24}}@keyframes in-constant-loop-prop-motion{0%,to{transform:translate(0,0);opacity:.92}25%{transform:translate(9px,-7px);opacity:1}50%{transform:translate(0,-12px);opacity:.82}75%{transform:translate(-9px,-7px);opacity:1}}.in-constant-loop-actor{animation:in-constant-loop-actor-motion 4800ms linear infinite;transform-box:view-box;transform-origin:1000px 1257.775px}.in-constant-loop-prop{animation:in-constant-loop-prop-motion 4800ms linear infinite;transform-box:view-box;transform-origin:1000px 1021.6px}@media (prefers-reduced-motion:reduce){.in-constant-loop-actor,.in-constant-loop-prop{animation:none!important;transform:none!important}}</style><ellipse cx="1000" cy="1281.775" fill="#2f2f38" data-shadow="true" opacity=".26" rx="326.021" ry="23.953" style="animation:in-constant-loop-shadow-motion 4800ms linear infinite;transform-box:view-box;transform-origin:1000px 1281.775px"/><g class="in-constant-loop-prop" data-prop="true" data-source-index="0"><path fill="#9c17e2" d="M914.225 485.425h43.55v43.55h-43.55z"/></g><g class="in-constant-loop-prop" data-prop="true" data-source-index="1"><path fill="#9c17e2" d="M956.625 528.625h43.55v43.55h-43.55z"/></g><g class="in-constant-loop-prop" data-prop="true" data-source-index="2"><path fill="#9c17e2" d="M785.425 571.025h43.55v43.55h-43.55z"/></g><g class="in-constant-loop-prop" data-prop="true" data-source-index="3"><path fill="#9c17e2" d="M828.625 571.025h43.55v43.55h-43.55z"/></g><g class="in-constant-loop-prop" data-prop="true" data-source-index="4"><path fill="#9c17e2" d="M871.025 571.025h43.55v43.55h-43.55z"/></g><g class="in-constant-loop-prop" data-prop="true" data-source-index="5"><path fill="#9c17e2" d="M914.225 571.025h43.55v43.55h-43.55z"/></g><g class="in-constant-loop-prop" data-prop="true" data-source-index="6"><path fill="#9c17e2" d="M956.625 571.025h43.55v43.55h-43.55z"/></g><g class="in-constant-loop-prop" data-prop="true" data-source-index="7"><path fill="#9c17e2" d="M999.825 571.025h43.55v43.55h-43.55z"/></g><g class="in-constant-loop-prop" data-prop="true" data-source-index="8"><path fill="#9c17e2" d="M1171.025 571.025h43.55v43.55h-43.55z"/></g><g class="in-constant-loop-prop" data-prop="true" data-source-index="9"><path fill="#9c17e2" d="M1214.225 571.025h43.55v43.55h-43.55z"/></g><g class="in-constant-loop-prop" data-prop="true" data-source-index="10"><path fill="#9c17e2" d="M743.025 614.225h43.55v43.55h-43.55z"/></g><g class="in-constant-loop-prop" data-prop="true" data-source-index="11"><path fill="#9c17e2" d="M956.625 614.225h43.55v43.55h-43.55z"/></g><g class="in-constant-loop-prop" data-prop="true" data-source-index="12"><path fill="#9c17e2" d="M1256.625 614.225h43.55v43.55h-43.55z"/></g><g class="in-constant-loop-prop" data-prop="true" data-source-index="13"><path fill="#9c17e2" d="M1343.025 614.225h43.55v43.55h-43.55z"/></g><g class="in-constant-loop-prop" data-prop="true" data-source-index="14"><path fill="#9c17e2" d="M699.825 656.625h43.55v43.55h-43.55z"/></g><g class="in-constant-loop-prop" data-prop="true" data-source-index="15"><path fill="#9c17e2" d="M914.225 656.625h43.55v43.55h-43.55z"/></g><g class="in-constant-loop-prop" data-prop="true" data-source-index="16"><path fill="#9c17e2" d="M1299.825 656.625h43.55v43.55h-43.55z"/></g><g class="in-constant-loop-prop" data-prop="true" data-source-index="17"><path fill="#9c17e2" d="M1343.025 656.625h43.55v43.55h-43.55z"/></g><g class="in-constant-loop-prop" data-prop="true" data-source-index="18"><path fill="#9c17e2" d="M656.625 699.825h43.55v43.55h-43.55z"/></g><g class="in-constant-loop-prop" data-prop="true" data-source-index="19"><path fill="#9c17e2" d="M1256.625 699.825h43.55v43.55h-43.55z"/></g><g class="in-constant-loop-prop" data-prop="true" data-source-index="20"><path fill="#9c17e2" d="M1299.825 699.825h43.55v43.55h-43.55z"/></g><g class="in-constant-loop-prop" data-prop="true" data-source-index="21"><path fill="#9c17e2" d="M1343.025 699.825h43.55v43.55h-43.55z"/></g><g class="in-constant-loop-prop" data-prop="true" data-source-index="22"><path fill="#9c17e2" d="M485.425 785.425h43.55v43.55h-43.55z"/></g><g class="in-constant-loop-prop" data-prop="true" data-source-index="23"><path fill="#9c17e2" d="M443.025 828.625h43.55v43.55h-43.55z"/></g><g class="in-constant-loop-prop" data-prop="true" data-source-index="24"><path fill="#9c17e2" d="M485.425 828.625h43.55v43.55h-43.55z"/></g><g class="in-constant-loop-prop" data-prop="true" data-source-index="25"><path fill="#9c17e2" d="M528.625 828.625h43.55v43.55h-43.55z"/></g><g class="in-constant-loop-prop" data-prop="true" data-source-index="26"><path fill="#9c17e2" d="M399.825 871.025h43.55v43.55h-43.55z"/></g><g class="in-constant-loop-prop" data-prop="true" data-source-index="27"><path fill="#9c17e2" d="M485.425 871.025h43.55v43.55h-43.55z"/></g><g class="in-constant-loop-prop" data-prop="true" data-source-index="28"><path fill="#9c17e2" d="M571.025 871.025h43.55v43.55h-43.55z"/></g><g class="in-constant-loop-actor" data-actor="true" data-source-index="29"><path fill="#d97757" d="M828.625 871.025h43.55v43.55h-43.55z"/></g><g class="in-constant-loop-actor" data-actor="true" data-source-index="30"><path fill="#d97757" d="M1128.625 871.025h43.55v43.55h-43.55z"/></g><g class="in-constant-loop-prop" data-prop="true" data-source-index="31"><path fill="#9c17e2" d="M485.425 914.225h43.55v43.55h-43.55z"/></g><g class="in-constant-loop-actor" data-actor="true" data-source-index="32"><path fill="#2f2f38" d="M785.425 914.225h43.55v43.55h-43.55z"/></g><g class="in-constant-loop-actor" data-actor="true" data-source-index="33"><path fill="#2f2f38" d="M871.025 914.225h43.55v43.55h-43.55z"/></g><g class="in-constant-loop-actor" data-actor="true" data-source-index="34"><path fill="#2f2f38" d="M1085.425 914.225h43.55v43.55h-43.55z"/></g><g class="in-constant-loop-actor" data-actor="true" data-source-index="35"><path fill="#2f2f38" d="M1171.025 914.225h43.55v43.55h-43.55z"/></g><g class="in-constant-loop-prop" data-prop="true" data-source-index="36"><path fill="#9c17e2" d="M485.425 956.625h43.55v43.55h-43.55z"/></g><g class="in-constant-loop-prop" data-prop="true" data-source-index="37"><path fill="#9c17e2" d="M485.425 999.825h43.55v43.55h-43.55z"/></g><g class="in-constant-loop-prop" data-prop="true" data-source-index="38"><path fill="#9c17e2" d="M485.425 1043.025h43.55v43.55h-43.55z"/></g><g class="in-constant-loop-prop" data-prop="true" data-source-index="39"><path fill="#9c17e2" d="M485.425 1085.425h43.55v43.55h-43.55z"/></g><g class="in-constant-loop-prop" data-prop="true" data-source-index="40"><path fill="#9c17e2" d="M528.625 1128.625h43.55v43.55h-43.55z"/></g><g class="in-constant-loop-actor" data-actor="true" data-source-index="41"><path fill="#d97757" d="M656.625 1171.025h43.55v43.55h-43.55z"/></g><g class="in-constant-loop-actor" data-actor="true" data-source-index="42"><path fill="#d97757" d="M785.425 1171.025h43.55v43.55h-43.55z"/></g><g class="in-constant-loop-actor" data-actor="true" data-source-index="43"><path fill="#d97757" d="M1299.825 1171.025h43.55v43.55h-43.55z"/></g><g class="in-constant-loop-prop" data-prop="true" data-source-index="44"><path fill="#9c17e2" d="M614.225 1214.225h43.55v43.55h-43.55z"/></g><g class="in-constant-loop-prop" data-prop="true" data-source-index="45"><path fill="#9c17e2" d="M656.625 1214.225h43.55v43.55h-43.55z"/></g><g class="in-constant-loop-prop" data-prop="true" data-source-index="46"><path fill="#9c17e2" d="M699.825 1214.225h43.55v43.55h-43.55z"/></g><g class="in-constant-loop-actor" data-actor="true" data-source-index="47"><path fill="#d97757" d="M1085.425 1214.225h43.55v43.55h-43.55z"/></g><g class="in-constant-loop-actor" data-actor="true" data-source-index="48"><path fill="#d97757" d="M1256.625 1214.225h43.55v43.55h-43.55z"/></g><g class="in-constant-loop-prop" data-prop="true" data-source-index="49"><path fill="#9c17e2" d="M1299.825 1214.225h43.55v43.55h-43.55z"/></g><g class="in-constant-loop-prop" data-prop="true" data-source-index="50"><path fill="#9c17e2" d="M614.225 1256.625h43.55v43.55h-43.55z"/></g><g class="in-constant-loop-prop" data-prop="true" data-source-index="51"><path fill="#9c17e2" d="M656.625 1256.625h43.55v43.55h-43.55z"/></g><g class="in-constant-loop-prop" data-prop="true" data-source-index="52"><path fill="#9c17e2" d="M1043.025 1256.625h43.55v43.55h-43.55z"/></g><g class="in-constant-loop-prop" data-prop="true" data-source-index="53"><path fill="#9c17e2" d="M1256.625 1256.625h43.55v43.55h-43.55z"/></g><g class="in-constant-loop-prop" data-prop="true" data-source-index="54"><path fill="#9c17e2" d="M614.225 1299.825h43.55v43.55h-43.55z"/></g><g class="in-constant-loop-prop" data-prop="true" data-source-index="55"><path fill="#9c17e2" d="M699.825 1299.825h43.55v43.55h-43.55z"/></g><g class="in-constant-loop-prop" data-prop="true" data-source-index="56"><path fill="#9c17e2" d="M999.825 1299.825h43.55v43.55h-43.55z"/></g><g class="in-constant-loop-prop" data-prop="true" data-source-index="57"><path fill="#9c17e2" d="M1214.225 1299.825h43.55v43.55h-43.55z"/></g><g class="in-constant-loop-prop" data-prop="true" data-source-index="58"><path fill="#9c17e2" d="M743.025 1343.025h43.55v43.55h-43.55z"/></g><g class="in-constant-loop-prop" data-prop="true" data-source-index="59"><path fill="#9c17e2" d="M785.425 1343.025h43.55v43.55h-43.55z"/></g><g class="in-constant-loop-prop" data-prop="true" data-source-index="60"><path fill="#9c17e2" d="M956.625 1343.025h43.55v43.55h-43.55z"/></g><g class="in-constant-loop-prop" data-prop="true" data-source-index="61"><path fill="#9c17e2" d="M999.825 1343.025h43.55v43.55h-43.55z"/></g><g class="in-constant-loop-prop" data-prop="true" data-source-index="62"><path fill="#9c17e2" d="M1043.025 1343.025h43.55v43.55h-43.55z"/></g><g class="in-constant-loop-prop" data-prop="true" data-source-index="63"><path fill="#9c17e2" d="M1085.425 1343.025h43.55v43.55h-43.55z"/></g><g class="in-constant-loop-prop" data-prop="true" data-source-index="64"><path fill="#9c17e2" d="M1128.625 1343.025h43.55v43.55h-43.55z"/></g><g class="in-constant-loop-prop" data-prop="true" data-source-index="65"><path fill="#9c17e2" d="M1171.025 1343.025h43.55v43.55h-43.55z"/></g><g class="in-constant-loop-prop" data-prop="true" data-source-index="66"><path fill="#9c17e2" d="M1428.625 785.425h43.55v43.55h-43.55z"/></g><g class="in-constant-loop-prop" data-prop="true" data-source-index="67"><path fill="#9c17e2" d="M1428.625 1085.425h43.55v43.55h-43.55z"/></g><g class="in-constant-loop-prop" data-prop="true" data-source-index="68"><path fill="#9c17e2" d="M1471.025 828.625h43.55v43.55h-43.55z"/></g><g class="in-constant-loop-prop" data-prop="true" data-source-index="69"><path fill="#9c17e2" d="M1471.025 871.025h43.55v43.55h-43.55z"/></g><g class="in-constant-loop-prop" data-prop="true" data-source-index="70"><path fill="#9c17e2" d="M1471.025 914.225h43.55v43.55h-43.55z"/></g><g class="in-constant-loop-prop" data-prop="true" data-source-index="71"><path fill="#9c17e2" d="M1471.025 956.625h43.55v43.55h-43.55z"/></g><g class="in-constant-loop-prop" data-prop="true" data-source-index="72"><path fill="#9c17e2" d="M1471.025 999.825h43.55v43.55h-43.55z"/></g><g class="in-constant-loop-prop" data-prop="true" data-source-index="73"><path fill="#9c17e2" d="M1471.025 1043.025h43.55v43.55h-43.55z"/></g><g class="in-constant-loop-prop" data-prop="true" data-source-index="74"><path fill="#9c17e2" d="M1471.025 1085.425h43.55v43.55h-43.55z"/></g><g class="in-constant-loop-prop" data-prop="true" data-source-index="75"><path fill="#9c17e2" d="M1471.025 1128.625h43.55v43.55h-43.55z"/></g><g class="in-constant-loop-prop" data-prop="true" data-source-index="76"><path fill="#9c17e2" d="M1514.225 1085.425h43.55v43.55h-43.55z"/></g><g class="in-constant-loop-prop" data-prop="true" data-source-index="77"><path fill="#9c17e2" d="M999.825 1385.425h43.55v43.55h-43.55z"/></g><g class="in-constant-loop-prop" data-prop="true" data-source-index="78"><path fill="#9c17e2" d="M1043.025 1428.625h43.55v43.55h-43.55z"/></g><g class="in-constant-loop-prop" data-prop="true" data-source-index="79"><path fill="#9c17e2" d="M1556.625 1043.025h43.55v43.55h-43.55z"/></g><g class="in-constant-loop-actor" data-actor="true" data-source-index="80"><path fill="#d97757" d="M699.825 785.425h43.55v43.55h-43.55z"/></g><g class="in-constant-loop-actor" data-actor="true" data-source-index="81"><path fill="#d97757" d="M743.025 785.425h43.55v43.55h-43.55z"/></g><g class="in-constant-loop-actor" data-actor="true" data-source-index="82"><path fill="#d97757" d="M785.425 785.425h43.55v43.55h-43.55z"/></g><g class="in-constant-loop-actor" data-actor="true" data-source-index="83"><path fill="#d97757" d="M828.625 785.425h43.55v43.55h-43.55z"/></g><g class="in-constant-loop-actor" data-actor="true" data-source-index="84"><path fill="#d97757" d="M871.025 785.425h43.55v43.55h-43.55z"/></g><g class="in-constant-loop-actor" data-actor="true" data-source-index="85"><path fill="#d97757" d="M914.225 785.425h43.55v43.55h-43.55z"/></g><g class="in-constant-loop-actor" data-actor="true" data-source-index="86"><path fill="#d97757" d="M956.625 785.425h43.55v43.55h-43.55z"/></g><g class="in-constant-loop-actor" data-actor="true" data-source-index="87"><path fill="#d97757" d="M999.825 785.425h43.55v43.55h-43.55z"/></g><g class="in-constant-loop-actor" data-actor="true" data-source-index="88"><path fill="#d97757" d="M1043.025 785.425h43.55v43.55h-43.55z"/></g><g class="in-constant-loop-actor" data-actor="true" data-source-index="89"><path fill="#d97757" d="M699.825 828.625h43.55v43.55h-43.55z"/></g><g class="in-constant-loop-actor" data-actor="true" data-source-index="90"><path fill="#d97757" d="M743.025 828.625h43.55v43.55h-43.55z"/></g><g class="in-constant-loop-actor" data-actor="true" data-source-index="91"><path fill="#d97757" d="M785.425 828.625h43.55v43.55h-43.55z"/></g><g class="in-constant-loop-actor" data-actor="true" data-source-index="92"><path fill="#d97757" d="M828.625 828.625h43.55v43.55h-43.55z"/></g><g class="in-constant-loop-actor" data-actor="true" data-source-index="93"><path fill="#d97757" d="M871.025 828.625h43.55v43.55h-43.55z"/></g><g class="in-constant-loop-actor" data-actor="true" data-source-index="94"><path fill="#d97757" d="M914.225 828.625h43.55v43.55h-43.55z"/></g><g class="in-constant-loop-actor" data-actor="true" data-source-index="95"><path fill="#d97757" d="M956.625 828.625h43.55v43.55h-43.55z"/></g><g class="in-constant-loop-actor" data-actor="true" data-source-index="96"><path fill="#d97757" d="M999.825 828.625h43.55v43.55h-43.55z"/></g><g class="in-constant-loop-actor" data-actor="true" data-source-index="97"><path fill="#d97757" d="M1043.025 828.625h43.55v43.55h-43.55z"/></g><g class="in-constant-loop-actor" data-actor="true" data-source-index="98"><path fill="#d97757" d="M699.825 871.025h43.55v43.55h-43.55z"/></g><g class="in-constant-loop-actor" data-actor="true" data-source-index="99"><path fill="#d97757" d="M743.025 871.025h43.55v43.55h-43.55z"/></g><g class="in-constant-loop-actor" data-actor="true" data-source-index="100"><path fill="#d97757" d="M785.425 871.025h43.55v43.55h-43.55z"/></g><g class="in-constant-loop-actor" data-actor="true" data-source-index="101"><path fill="#d97757" d="M871.025 871.025h43.55v43.55h-43.55z"/></g><g class="in-constant-loop-actor" data-actor="true" data-source-index="102"><path fill="#d97757" d="M914.225 871.025h43.55v43.55h-43.55z"/></g><g class="in-constant-loop-actor" data-actor="true" data-source-index="103"><path fill="#d97757" d="M956.625 871.025h43.55v43.55h-43.55z"/></g><g class="in-constant-loop-actor" data-actor="true" data-source-index="104"><path fill="#d97757" d="M999.825 871.025h43.55v43.55h-43.55z"/></g><g class="in-constant-loop-actor" data-actor="true" data-source-index="105"><path fill="#d97757" d="M1043.025 871.025h43.55v43.55h-43.55z"/></g><g class="in-constant-loop-actor" data-actor="true" data-source-index="106"><path fill="#d97757" d="M699.825 914.225h43.55v43.55h-43.55z"/></g><g class="in-constant-loop-actor" data-actor="true" data-source-index="107"><path fill="#d97757" d="M743.025 914.225h43.55v43.55h-43.55z"/></g><g class="in-constant-loop-actor" data-actor="true" data-source-index="108"><path fill="#d97757" d="M828.625 914.225h43.55v43.55h-43.55z"/></g><g class="in-constant-loop-actor" data-actor="true" data-source-index="109"><path fill="#d97757" d="M914.225 914.225h43.55v43.55h-43.55z"/></g><g class="in-constant-loop-actor" data-actor="true" data-source-index="110"><path fill="#d97757" d="M956.625 914.225h43.55v43.55h-43.55z"/></g><g class="in-constant-loop-actor" data-actor="true" data-source-index="111"><path fill="#d97757" d="M999.825 914.225h43.55v43.55h-43.55z"/></g><g class="in-constant-loop-actor" data-actor="true" data-source-index="112"><path fill="#d97757" d="M1043.025 914.225h43.55v43.55h-43.55z"/></g><g class="in-constant-loop-actor" data-actor="true" data-source-index="113"><path fill="#d97757" d="M571.025 956.625h43.55v43.55h-43.55z"/></g><g class="in-constant-loop-actor" data-actor="true" data-source-index="114"><path fill="#d97757" d="M614.225 956.625h43.55v43.55h-43.55z"/></g><g class="in-constant-loop-actor" data-actor="true" data-source-index="115"><path fill="#d97757" d="M656.625 956.625h43.55v43.55h-43.55z"/></g><g class="in-constant-loop-actor" data-actor="true" data-source-index="116"><path fill="#d97757" d="M699.825 956.625h43.55v43.55h-43.55z"/></g><g class="in-constant-loop-actor" data-actor="true" data-source-index="117"><path fill="#d97757" d="M743.025 956.625h43.55v43.55h-43.55z"/></g><g class="in-constant-loop-actor" data-actor="true" data-source-index="118"><path fill="#d97757" d="M785.425 956.625h43.55v43.55h-43.55z"/></g><g class="in-constant-loop-actor" data-actor="true" data-source-index="119"><path fill="#2f2f38" d="M828.625 956.625h43.55v43.55h-43.55z"/></g><g class="in-constant-loop-actor" data-actor="true" data-source-index="120"><path fill="#d97757" d="M871.025 956.625h43.55v43.55h-43.55z"/></g><g class="in-constant-loop-actor" data-actor="true" data-source-index="121"><path fill="#d97757" d="M914.225 956.625h43.55v43.55h-43.55z"/></g><g class="in-constant-loop-actor" data-actor="true" data-source-index="122"><path fill="#d97757" d="M956.625 956.625h43.55v43.55h-43.55z"/></g><g class="in-constant-loop-actor" data-actor="true" data-source-index="123"><path fill="#d97757" d="M999.825 956.625h43.55v43.55h-43.55z"/></g><g class="in-constant-loop-actor" data-actor="true" data-source-index="124"><path fill="#d97757" d="M1043.025 956.625h43.55v43.55h-43.55z"/></g><g class="in-constant-loop-actor" data-actor="true" data-source-index="125"><path fill="#d97757" d="M571.025 999.825h43.55v43.55h-43.55z"/></g><g class="in-constant-loop-actor" data-actor="true" data-source-index="126"><path fill="#d97757" d="M614.225 999.825h43.55v43.55h-43.55z"/></g><g class="in-constant-loop-actor" data-actor="true" data-source-index="127"><path fill="#d97757" d="M656.625 999.825h43.55v43.55h-43.55z"/></g><g class="in-constant-loop-actor" data-actor="true" data-source-index="128"><path fill="#d97757" d="M699.825 999.825h43.55v43.55h-43.55z"/></g><g class="in-constant-loop-actor" data-actor="true" data-source-index="129"><path fill="#d97757" d="M743.025 999.825h43.55v43.55h-43.55z"/></g><g class="in-constant-loop-actor" data-actor="true" data-source-index="130"><path fill="#d97757" d="M785.425 999.825h43.55v43.55h-43.55z"/></g><g class="in-constant-loop-actor" data-actor="true" data-source-index="131"><path fill="#d97757" d="M828.625 999.825h43.55v43.55h-43.55z"/></g><g class="in-constant-loop-actor" data-actor="true" data-source-index="132"><path fill="#d97757" d="M871.025 999.825h43.55v43.55h-43.55z"/></g><g class="in-constant-loop-actor" data-actor="true" data-source-index="133"><path fill="#d97757" d="M914.225 999.825h43.55v43.55h-43.55z"/></g><g class="in-constant-loop-actor" data-actor="true" data-source-index="134"><path fill="#d97757" d="M956.625 999.825h43.55v43.55h-43.55z"/></g><g class="in-constant-loop-actor" data-actor="true" data-source-index="135"><path fill="#d97757" d="M999.825 999.825h43.55v43.55h-43.55z"/></g><g class="in-constant-loop-actor" data-actor="true" data-source-index="136"><path fill="#d97757" d="M1043.025 999.825h43.55v43.55h-43.55z"/></g><g class="in-constant-loop-actor" data-actor="true" data-source-index="137"><path fill="#d97757" d="M571.025 1043.025h43.55v43.55h-43.55z"/></g><g class="in-constant-loop-actor" data-actor="true" data-source-index="138"><path fill="#d97757" d="M614.225 1043.025h43.55v43.55h-43.55z"/></g><g class="in-constant-loop-actor" data-actor="true" data-source-index="139"><path fill="#d97757" d="M656.625 1043.025h43.55v43.55h-43.55z"/></g><g class="in-constant-loop-actor" data-actor="true" data-source-index="140"><path fill="#d97757" d="M699.825 1043.025h43.55v43.55h-43.55z"/></g><g class="in-constant-loop-actor" data-actor="true" data-source-index="141"><path fill="#d97757" d="M743.025 1043.025h43.55v43.55h-43.55z"/></g><g class="in-constant-loop-actor" data-actor="true" data-source-index="142"><path fill="#d97757" d="M785.425 1043.025h43.55v43.55h-43.55z"/></g><g class="in-constant-loop-actor" data-actor="true" data-source-index="143"><path fill="#d97757" d="M828.625 1043.025h43.55v43.55h-43.55z"/></g><g class="in-constant-loop-actor" data-actor="true" data-source-index="144"><path fill="#d97757" d="M871.025 1043.025h43.55v43.55h-43.55z"/></g><g class="in-constant-loop-actor" data-actor="true" data-source-index="145"><path fill="#d97757" d="M914.225 1043.025h43.55v43.55h-43.55z"/></g><g class="in-constant-loop-actor" data-actor="true" data-source-index="146"><path fill="#fff" d="M956.625 1043.025h43.55v43.55h-43.55z"/></g><g class="in-constant-loop-actor" data-actor="true" data-source-index="147"><path fill="#fff" d="M999.825 1043.025h43.55v43.55h-43.55z"/></g><g class="in-constant-loop-actor" data-actor="true" data-source-index="148"><path fill="#d97757" d="M1043.025 1043.025h43.55v43.55h-43.55z"/></g><g class="in-constant-loop-actor" data-actor="true" data-source-index="149"><path fill="#d97757" d="M699.825 1085.425h43.55v43.55h-43.55z"/></g><g class="in-constant-loop-actor" data-actor="true" data-source-index="150"><path fill="#d97757" d="M743.025 1085.425h43.55v43.55h-43.55z"/></g><g class="in-constant-loop-actor" data-actor="true" data-source-index="151"><path fill="#d97757" d="M785.425 1085.425h43.55v43.55h-43.55z"/></g><g class="in-constant-loop-actor" data-actor="true" data-source-index="152"><path fill="#d97757" d="M828.625 1085.425h43.55v43.55h-43.55z"/></g><g class="in-constant-loop-actor" data-actor="true" data-source-index="153"><path fill="#d97757" d="M871.025 1085.425h43.55v43.55h-43.55z"/></g><g class="in-constant-loop-actor" data-actor="true" data-source-index="154"><path fill="#d97757" d="M914.225 1085.425h43.55v43.55h-43.55z"/></g><g class="in-constant-loop-actor" data-actor="true" data-source-index="155"><path fill="#d97757" d="M956.625 1085.425h43.55v43.55h-43.55z"/></g><g class="in-constant-loop-actor" data-actor="true" data-source-index="156"><path fill="#d97757" d="M999.825 1085.425h43.55v43.55h-43.55z"/></g><g class="in-constant-loop-actor" data-actor="true" data-source-index="157"><path fill="#d97757" d="M1043.025 1085.425h43.55v43.55h-43.55z"/></g><g class="in-constant-loop-actor" data-actor="true" data-source-index="158"><path fill="#d97757" d="M699.825 1128.625h43.55v43.55h-43.55z"/></g><g class="in-constant-loop-actor" data-actor="true" data-source-index="159"><path fill="#d97757" d="M743.025 1128.625h43.55v43.55h-43.55z"/></g><g class="in-constant-loop-actor" data-actor="true" data-source-index="160"><path fill="#d97757" d="M785.425 1128.625h43.55v43.55h-43.55z"/></g><g class="in-constant-loop-actor" data-actor="true" data-source-index="161"><path fill="#d97757" d="M828.625 1128.625h43.55v43.55h-43.55z"/></g><g class="in-constant-loop-actor" data-actor="true" data-source-index="162"><path fill="#d97757" d="M871.025 1128.625h43.55v43.55h-43.55z"/></g><g class="in-constant-loop-actor" data-actor="true" data-source-index="163"><path fill="#d97757" d="M914.225 1128.625h43.55v43.55h-43.55z"/></g><g class="in-constant-loop-actor" data-actor="true" data-source-index="164"><path fill="#d97757" d="M956.625 1128.625h43.55v43.55h-43.55z"/></g><g class="in-constant-loop-actor" data-actor="true" data-source-index="165"><path fill="#d97757" d="M999.825 1128.625h43.55v43.55h-43.55z"/></g><g class="in-constant-loop-actor" data-actor="true" data-source-index="166"><path fill="#d97757" d="M1043.025 1128.625h43.55v43.55h-43.55z"/></g><g class="in-constant-loop-actor" data-actor="true" data-source-index="167"><path fill="#d97757" d="M828.625 1214.225h43.55v43.55h-43.55z"/></g><g class="in-constant-loop-actor" data-actor="true" data-source-index="168"><path fill="#d97757" d="M1085.425 785.425h43.55v43.55h-43.55z"/></g><g class="in-constant-loop-actor" data-actor="true" data-source-index="169"><path fill="#d97757" d="M1085.425 828.625h43.55v43.55h-43.55z"/></g><g class="in-constant-loop-actor" data-actor="true" data-source-index="170"><path fill="#d97757" d="M1085.425 871.025h43.55v43.55h-43.55z"/></g><g class="in-constant-loop-actor" data-actor="true" data-source-index="171"><path fill="#d97757" d="M1085.425 956.625h43.55v43.55h-43.55z"/></g><g class="in-constant-loop-actor" data-actor="true" data-source-index="172"><path fill="#d97757" d="M1085.425 999.825h43.55v43.55h-43.55z"/></g><g class="in-constant-loop-actor" data-actor="true" data-source-index="173"><path fill="#d97757" d="M1085.425 1043.025h43.55v43.55h-43.55z"/></g><g class="in-constant-loop-actor" data-actor="true" data-source-index="174"><path fill="#d97757" d="M1085.425 1085.425h43.55v43.55h-43.55z"/></g><g class="in-constant-loop-actor" data-actor="true" data-source-index="175"><path fill="#d97757" d="M1085.425 1128.625h43.55v43.55h-43.55z"/></g><g class="in-constant-loop-actor" data-actor="true" data-source-index="176"><path fill="#d97757" d="M1128.625 785.425h43.55v43.55h-43.55z"/></g><g class="in-constant-loop-actor" data-actor="true" data-source-index="177"><path fill="#d97757" d="M1128.625 828.625h43.55v43.55h-43.55z"/></g><g class="in-constant-loop-actor" data-actor="true" data-source-index="178"><path fill="#d97757" d="M1128.625 914.225h43.55v43.55h-43.55z"/></g><g class="in-constant-loop-actor" data-actor="true" data-source-index="179"><path fill="#2f2f38" d="M1128.625 956.625h43.55v43.55h-43.55z"/></g><g class="in-constant-loop-actor" data-actor="true" data-source-index="180"><path fill="#d97757" d="M1128.625 999.825h43.55v43.55h-43.55z"/></g><g class="in-constant-loop-actor" data-actor="true" data-source-index="181"><path fill="#d97757" d="M1128.625 1043.025h43.55v43.55h-43.55z"/></g><g class="in-constant-loop-actor" data-actor="true" data-source-index="182"><path fill="#d97757" d="M1128.625 1085.425h43.55v43.55h-43.55z"/></g><g class="in-constant-loop-actor" data-actor="true" data-source-index="183"><path fill="#d97757" d="M1128.625 1128.625h43.55v43.55h-43.55z"/></g><g class="in-constant-loop-actor" data-actor="true" data-source-index="184"><path fill="#d97757" d="M1128.625 1171.025h43.55v43.55h-43.55z"/></g><g class="in-constant-loop-actor" data-actor="true" data-source-index="185"><path fill="#d97757" d="M1171.025 785.425h43.55v43.55h-43.55z"/></g><g class="in-constant-loop-actor" data-actor="true" data-source-index="186"><path fill="#d97757" d="M1171.025 828.625h43.55v43.55h-43.55z"/></g><g class="in-constant-loop-actor" data-actor="true" data-source-index="187"><path fill="#d97757" d="M1171.025 871.025h43.55v43.55h-43.55z"/></g><g class="in-constant-loop-actor" data-actor="true" data-source-index="188"><path fill="#d97757" d="M1171.025 956.625h43.55v43.55h-43.55z"/></g><g class="in-constant-loop-actor" data-actor="true" data-source-index="189"><path fill="#d97757" d="M1171.025 999.825h43.55v43.55h-43.55z"/></g><g class="in-constant-loop-actor" data-actor="true" data-source-index="190"><path fill="#d97757" d="M1171.025 1043.025h43.55v43.55h-43.55z"/></g><g class="in-constant-loop-actor" data-actor="true" data-source-index="191"><path fill="#d97757" d="M1171.025 1085.425h43.55v43.55h-43.55z"/></g><g class="in-constant-loop-actor" data-actor="true" data-source-index="192"><path fill="#d97757" d="M1171.025 1128.625h43.55v43.55h-43.55z"/></g><g class="in-constant-loop-actor" data-actor="true" data-source-index="193"><path fill="#d97757" d="M1214.225 785.425h43.55v43.55h-43.55z"/></g><g class="in-constant-loop-actor" data-actor="true" data-source-index="194"><path fill="#d97757" d="M1214.225 828.625h43.55v43.55h-43.55z"/></g><g class="in-constant-loop-actor" data-actor="true" data-source-index="195"><path fill="#d97757" d="M1214.225 871.025h43.55v43.55h-43.55z"/></g><g class="in-constant-loop-actor" data-actor="true" data-source-index="196"><path fill="#d97757" d="M1214.225 914.225h43.55v43.55h-43.55z"/></g><g class="in-constant-loop-actor" data-actor="true" data-source-index="197"><path fill="#d97757" d="M1214.225 956.625h43.55v43.55h-43.55z"/></g><g class="in-constant-loop-actor" data-actor="true" data-source-index="198"><path fill="#d97757" d="M1214.225 999.825h43.55v43.55h-43.55z"/></g><g class="in-constant-loop-actor" data-actor="true" data-source-index="199"><path fill="#d97757" d="M1214.225 1043.025h43.55v43.55h-43.55z"/></g><g class="in-constant-loop-actor" data-actor="true" data-source-index="200"><path fill="#d97757" d="M1214.225 1085.425h43.55v43.55h-43.55z"/></g><g class="in-constant-loop-actor" data-actor="true" data-source-index="201"><path fill="#d97757" d="M1214.225 1128.625h43.55v43.55h-43.55z"/></g><g class="in-constant-loop-actor" data-actor="true" data-source-index="202"><path fill="#d97757" d="M1256.625 785.425h43.55v43.55h-43.55z"/></g><g class="in-constant-loop-actor" data-actor="true" data-source-index="203"><path fill="#d97757" d="M1256.625 828.625h43.55v43.55h-43.55z"/></g><g class="in-constant-loop-actor" data-actor="true" data-source-index="204"><path fill="#d97757" d="M1256.625 871.025h43.55v43.55h-43.55z"/></g><g class="in-constant-loop-actor" data-actor="true" data-source-index="205"><path fill="#d97757" d="M1256.625 914.225h43.55v43.55h-43.55z"/></g><g class="in-constant-loop-actor" data-actor="true" data-source-index="206"><path fill="#d97757" d="M1256.625 956.625h43.55v43.55h-43.55z"/></g><g class="in-constant-loop-actor" data-actor="true" data-source-index="207"><path fill="#d97757" d="M1256.625 999.825h43.55v43.55h-43.55z"/></g><g class="in-constant-loop-actor" data-actor="true" data-source-index="208"><path fill="#d97757" d="M1256.625 1043.025h43.55v43.55h-43.55z"/></g><g class="in-constant-loop-actor" data-actor="true" data-source-index="209"><path fill="#d97757" d="M1299.825 956.625h43.55v43.55h-43.55z"/></g><g class="in-constant-loop-actor" data-actor="true" data-source-index="210"><path fill="#d97757" d="M1299.825 999.825h43.55v43.55h-43.55z"/></g><g class="in-constant-loop-actor" data-actor="true" data-source-index="211"><path fill="#d97757" d="M1299.825 1043.025h43.55v43.55h-43.55z"/></g><g class="in-constant-loop-actor" data-actor="true" data-source-index="212"><path fill="#d97757" d="M1343.025 956.625h43.55v43.55h-43.55z"/></g><g class="in-constant-loop-actor" data-actor="true" data-source-index="213"><path fill="#d97757" d="M1343.025 999.825h43.55v43.55h-43.55z"/></g><g class="in-constant-loop-actor" data-actor="true" data-source-index="214"><path fill="#d97757" d="M1343.025 1043.025h43.55v43.55h-43.55z"/></g><g class="in-constant-loop-actor" data-actor="true" data-source-index="215"><path fill="#d97757" d="M1385.425 956.625h43.55v43.55h-43.55z"/></g><g class="in-constant-loop-actor" data-actor="true" data-source-index="216"><path fill="#d97757" d="M1385.425 999.825h43.55v43.55h-43.55z"/></g><g class="in-constant-loop-prop" data-prop="true" data-source-index="217"><path fill="#9c17e2" d="M1385.425 1043.025h43.55v43.55h-43.55z"/></g><g class="in-constant-loop-actor" data-actor="true" data-source-index="218"><path fill="#d97757" d="M1256.625 1085.425h43.55v43.55h-43.55z"/></g><g class="in-constant-loop-actor" data-actor="true" data-source-index="219"><path fill="#d97757" d="M1256.625 1128.625h43.55v43.55h-43.55z"/></g></svg>