<svg xmlns="http://www.w3.org/2000/svg" width="400" height="400" aria-labelledby="planting-small-trees-title planting-small-trees-desc" data-motion-family="growth" data-motion-preset="plant" data-pack="growth" data-source="svgs/mascots/planting-small-trees.svg" data-source-sha256="2fb9f61f75046761ea1905196849e768604ed291a9530cd057849f7983388f1d" overflow="hidden" role="img" shape-rendering="crispEdges" viewBox="0 0 2000 2000"><title id="planting-small-trees-title">Planting Small Trees</title><desc id="planting-small-trees-desc">The terracotta mascot plants the saplings through effort, contact, release, and delayed tree sway. The loop uses bounded anticipation, contact weight, and recovery inside the fixed frame.</desc><style>@keyframes planting-small-trees-actor-motion{0%,18%,88%,to{transform:translate(0,0) rotate(0deg) scale(1,1)}28%{transform:translate(0,18px) rotate(0deg) scale(1.045,.93)}52%,62%{transform:translate(0,-55.169px) rotate(0deg) scale(.985,1.055)}65.25%{transform:translate(0,-31.029px) rotate(0deg) scale(.992,1.031)}68.5%{transform:translate(0,-10.036px) rotate(0deg) scale(.997,1.01)}71.75%{transform:translate(0,-2.267px) rotate(0deg) scale(.999,1.002)}75%{transform:translate(0,-.287px) rotate(0deg) scale(1,1)}78.25%,81.5%{transform:translate(0,.038px) rotate(0deg) scale(1,1)}84.75%{transform:translate(0,.015px) rotate(0deg) scale(1,1)}}@keyframes planting-small-trees-shadow-motion{0%,18%,78.25%,81.5%,84.75%,88%,to{transform:translateX(0) scaleX(1);opacity:.26}28%{transform:translateX(0) scaleX(1.005);opacity:.26}52%,62%{transform:translateX(0) scaleX(.86);opacity:.213}65.25%{transform:translateX(0) scaleX(.921);opacity:.234}68.5%{transform:translateX(0) scaleX(.975);opacity:.252}71.75%{transform:translateX(0) scaleX(.994);opacity:.258}75%{transform:translateX(0) scaleX(.999);opacity:.26}}@keyframes planting-small-trees-prop-motion{0%,18%,88%,to{transform:translate(0,0) rotate(0deg)}28%{transform:translate(0,-2.16px) rotate(0deg)}52%,62%{transform:translate(0,6.62px) rotate(0deg)}65.25%{transform:translate(0,3.723px) rotate(0deg)}68.5%{transform:translate(0,1.204px) rotate(0deg)}71.75%{transform:translate(0,.272px) rotate(0deg)}75%{transform:translate(0,.034px) rotate(0deg)}78.25%,81.5%{transform:translate(0,-.005px) rotate(0deg)}84.75%{transform:translate(0,-.002px) rotate(0deg)}}.planting-small-trees-actor{animation:planting-small-trees-actor-motion 5800ms linear infinite;transform-box:view-box;transform-origin:1064.4px 1236.175px}.planting-small-trees-prop{animation:planting-small-trees-prop-motion 5800ms linear infinite;transform-box:view-box;transform-origin:1064.4px 1000px}@media (prefers-reduced-motion:reduce){.planting-small-trees-actor,.planting-small-trees-prop{animation:none!important;transform:none!important}}</style><ellipse cx="1064.4" cy="1260.175" fill="#2f2f38" data-shadow="true" opacity=".26" rx="293.493" ry="23.953" style="animation:planting-small-trees-shadow-motion 5800ms linear infinite;transform-box:view-box;transform-origin:1064.4px 1260.175px"/><g class="planting-small-trees-actor" data-actor="true" data-source-index="0"><path fill="#d97757" d="M892.625 850.225h43.55v43.55h-43.55z"/></g><g class="planting-small-trees-actor" data-actor="true" data-source-index="1"><path fill="#d97757" d="M1192.625 850.225h43.55v43.55h-43.55z"/></g><g class="planting-small-trees-actor" data-actor="true" data-source-index="2"><path fill="#d97757" d="M850.225 892.625h43.55v43.55h-43.55z"/></g><g class="planting-small-trees-actor" data-actor="true" data-source-index="3"><path fill="#d97757" d="M935.825 892.625h43.55v43.55h-43.55z"/></g><g class="planting-small-trees-actor" data-actor="true" data-source-index="4"><path fill="#d97757" d="M1149.425 892.625h43.55v43.55h-43.55z"/></g><g class="planting-small-trees-actor" data-actor="true" data-source-index="5"><path fill="#d97757" d="M1235.825 892.625h43.55v43.55h-43.55z"/></g><g class="planting-small-trees-prop" data-prop="true" data-source-index="6"><path fill="#7c7cce" d="M592.625 978.225h43.55v43.55h-43.55z"/></g><g class="planting-small-trees-prop" data-prop="true" data-source-index="7"><path fill="#4f4aa8" d="M592.625 1021.425h43.55v43.55h-43.55z"/></g><g class="planting-small-trees-prop" data-prop="true" data-source-index="8"><path fill="#7c7cce" d="M592.625 1063.825h43.55v43.55h-43.55z"/></g><g class="planting-small-trees-prop" data-prop="true" data-source-index="9"><path fill="#4f4aa8" d="M635.825 1063.825h43.55v43.55h-43.55z"/></g><g class="planting-small-trees-prop" data-prop="true" data-source-index="10"><path fill="#7c7cce" d="M678.225 1063.825h43.55v43.55h-43.55z"/></g><g class="planting-small-trees-actor" data-actor="true" data-source-index="11"><path fill="#d97757" d="M721.425 1063.825h43.55v43.55h-43.55z"/></g><g class="planting-small-trees-actor" data-actor="true" data-source-index="12"><path fill="#d97757" d="M1363.825 1063.825h43.55v43.55h-43.55z"/></g><g class="planting-small-trees-actor" data-actor="true" data-source-index="13"><path fill="#d97757" d="M1407.025 1063.825h43.55v43.55h-43.55z"/></g><g class="planting-small-trees-prop" data-prop="true" data-source-index="14"><path fill="#828293" d="M635.825 1107.025h43.55v43.55h-43.55z"/></g><g class="planting-small-trees-actor" data-actor="true" data-source-index="15"><path fill="#d97757" d="M678.225 1107.025h43.55v43.55h-43.55z"/></g><g class="planting-small-trees-actor" data-actor="true" data-source-index="16"><path fill="#d97757" d="M721.425 1107.025h43.55v43.55h-43.55z"/></g><g class="planting-small-trees-actor" data-actor="true" data-source-index="17"><path fill="#d97757" d="M1363.825 1107.025h43.55v43.55h-43.55z"/></g><g class="planting-small-trees-actor" data-actor="true" data-source-index="18"><path fill="#d97757" d="M1407.025 1107.025h43.55v43.55h-43.55z"/></g><g class="planting-small-trees-prop" data-prop="true" data-source-index="19"><path fill="#828293" d="M635.825 1149.425h43.55v43.55h-43.55z"/></g><g class="planting-small-trees-actor" data-actor="true" data-source-index="20"><path fill="#d97757" d="M763.825 1149.425h43.55v43.55h-43.55z"/></g><g class="planting-small-trees-actor" data-actor="true" data-source-index="21"><path fill="#d97757" d="M1321.425 1149.425h43.55v43.55h-43.55z"/></g><g class="planting-small-trees-prop" data-prop="true" data-source-index="22"><path fill="#efd760" d="M550.225 1192.625h43.55v43.55h-43.55z"/></g><g class="planting-small-trees-prop" data-prop="true" data-source-index="23"><path fill="#ffeb99" d="M592.625 1192.625h43.55v43.55h-43.55z"/></g><g class="planting-small-trees-prop" data-prop="true" data-source-index="24"><path fill="#efd760" d="M635.825 1192.625h43.55v43.55h-43.55z"/></g><g class="planting-small-trees-prop" data-prop="true" data-source-index="25"><path fill="#ffeb99" d="M678.225 1192.625h43.55v43.55h-43.55z"/></g><g class="planting-small-trees-prop" data-prop="true" data-source-index="26"><path fill="#efd760" d="M721.425 1192.625h43.55v43.55h-43.55z"/></g><g class="planting-small-trees-prop" data-prop="true" data-source-index="27"><path fill="#ffeb99" d="M763.825 1192.625h43.55v43.55h-43.55z"/></g><g class="planting-small-trees-prop" data-prop="true" data-source-index="28"><path fill="#ffeb99" d="M850.225 1192.625h43.55v43.55h-43.55z"/></g><g class="planting-small-trees-actor" data-actor="true" data-source-index="29"><path fill="#d97757" d="M1321.425 1192.625h43.55v43.55h-43.55z"/></g><g class="planting-small-trees-actor" data-actor="true" data-source-index="30"><path fill="#d97757" d="M763.825 763.825h43.55v43.55h-43.55z"/></g><g class="planting-small-trees-actor" data-actor="true" data-source-index="31"><path fill="#d97757" d="M807.025 763.825h43.55v43.55h-43.55z"/></g><g class="planting-small-trees-actor" data-actor="true" data-source-index="32"><path fill="#d97757" d="M850.225 763.825h43.55v43.55h-43.55z"/></g><g class="planting-small-trees-actor" data-actor="true" data-source-index="33"><path fill="#d97757" d="M892.625 763.825h43.55v43.55h-43.55z"/></g><g class="planting-small-trees-actor" data-actor="true" data-source-index="34"><path fill="#d97757" d="M935.825 763.825h43.55v43.55h-43.55z"/></g><g class="planting-small-trees-actor" data-actor="true" data-source-index="35"><path fill="#d97757" d="M978.225 763.825h43.55v43.55h-43.55z"/></g><g class="planting-small-trees-actor" data-actor="true" data-source-index="36"><path fill="#d97757" d="M1021.425 763.825h43.55v43.55h-43.55z"/></g><g class="planting-small-trees-actor" data-actor="true" data-source-index="37"><path fill="#d97757" d="M1063.825 763.825h43.55v43.55h-43.55z"/></g><g class="planting-small-trees-actor" data-actor="true" data-source-index="38"><path fill="#d97757" d="M1107.025 763.825h43.55v43.55h-43.55z"/></g><g class="planting-small-trees-actor" data-actor="true" data-source-index="39"><path fill="#d97757" d="M763.825 807.025h43.55v43.55h-43.55z"/></g><g class="planting-small-trees-actor" data-actor="true" data-source-index="40"><path fill="#d97757" d="M807.025 807.025h43.55v43.55h-43.55z"/></g><g class="planting-small-trees-actor" data-actor="true" data-source-index="41"><path fill="#d97757" d="M850.225 807.025h43.55v43.55h-43.55z"/></g><g class="planting-small-trees-actor" data-actor="true" data-source-index="42"><path fill="#d97757" d="M892.625 807.025h43.55v43.55h-43.55z"/></g><g class="planting-small-trees-actor" data-actor="true" data-source-index="43"><path fill="#d97757" d="M935.825 807.025h43.55v43.55h-43.55z"/></g><g class="planting-small-trees-actor" data-actor="true" data-source-index="44"><path fill="#d97757" d="M978.225 807.025h43.55v43.55h-43.55z"/></g><g class="planting-small-trees-actor" data-actor="true" data-source-index="45"><path fill="#d97757" d="M1021.425 807.025h43.55v43.55h-43.55z"/></g><g class="planting-small-trees-actor" data-actor="true" data-source-index="46"><path fill="#d97757" d="M1063.825 807.025h43.55v43.55h-43.55z"/></g><g class="planting-small-trees-actor" data-actor="true" data-source-index="47"><path fill="#d97757" d="M1107.025 807.025h43.55v43.55h-43.55z"/></g><g class="planting-small-trees-actor" data-actor="true" data-source-index="48"><path fill="#d97757" d="M763.825 850.225h43.55v43.55h-43.55z"/></g><g class="planting-small-trees-actor" data-actor="true" data-source-index="49"><path fill="#d97757" d="M807.025 850.225h43.55v43.55h-43.55z"/></g><g class="planting-small-trees-actor" data-actor="true" data-source-index="50"><path fill="#d97757" d="M850.225 850.225h43.55v43.55h-43.55z"/></g><g class="planting-small-trees-actor" data-actor="true" data-source-index="51"><path fill="#d97757" d="M935.825 850.225h43.55v43.55h-43.55z"/></g><g class="planting-small-trees-actor" data-actor="true" data-source-index="52"><path fill="#d97757" d="M978.225 850.225h43.55v43.55h-43.55z"/></g><g class="planting-small-trees-actor" data-actor="true" data-source-index="53"><path fill="#d97757" d="M1021.425 850.225h43.55v43.55h-43.55z"/></g><g class="planting-small-trees-actor" data-actor="true" data-source-index="54"><path fill="#d97757" d="M1063.825 850.225h43.55v43.55h-43.55z"/></g><g class="planting-small-trees-actor" data-actor="true" data-source-index="55"><path fill="#d97757" d="M1107.025 850.225h43.55v43.55h-43.55z"/></g><g class="planting-small-trees-actor" data-actor="true" data-source-index="56"><path fill="#d97757" d="M763.825 892.625h43.55v43.55h-43.55z"/></g><g class="planting-small-trees-actor" data-actor="true" data-source-index="57"><path fill="#d97757" d="M807.025 892.625h43.55v43.55h-43.55z"/></g><g class="planting-small-trees-actor" data-actor="true" data-source-index="58"><path fill="#d97757" d="M892.625 892.625h43.55v43.55h-43.55z"/></g><g class="planting-small-trees-actor" data-actor="true" data-source-index="59"><path fill="#d97757" d="M978.225 892.625h43.55v43.55h-43.55z"/></g><g class="planting-small-trees-actor" data-actor="true" data-source-index="60"><path fill="#d97757" d="M1021.425 892.625h43.55v43.55h-43.55z"/></g><g class="planting-small-trees-actor" data-actor="true" data-source-index="61"><path fill="#d97757" d="M1063.825 892.625h43.55v43.55h-43.55z"/></g><g class="planting-small-trees-actor" data-actor="true" data-source-index="62"><path fill="#d97757" d="M1107.025 892.625h43.55v43.55h-43.55z"/></g><g class="planting-small-trees-actor" data-actor="true" data-source-index="63"><path fill="#d97757" d="M763.825 935.825h43.55v43.55h-43.55z"/></g><g class="planting-small-trees-actor" data-actor="true" data-source-index="64"><path fill="#d97757" d="M807.025 935.825h43.55v43.55h-43.55z"/></g><g class="planting-small-trees-actor" data-actor="true" data-source-index="65"><path fill="#2f2f38" d="M850.225 935.825h43.55v43.55h-43.55z"/></g><g class="planting-small-trees-actor" data-actor="true" data-source-index="66"><path fill="#d97757" d="M892.625 935.825h43.55v43.55h-43.55z"/></g><g class="planting-small-trees-actor" data-actor="true" data-source-index="67"><path fill="#d97757" d="M935.825 935.825h43.55v43.55h-43.55z"/></g><g class="planting-small-trees-actor" data-actor="true" data-source-index="68"><path fill="#d97757" d="M978.225 935.825h43.55v43.55h-43.55z"/></g><g class="planting-small-trees-actor" data-actor="true" data-source-index="69"><path fill="#d97757" d="M1021.425 935.825h43.55v43.55h-43.55z"/></g><g class="planting-small-trees-actor" data-actor="true" data-source-index="70"><path fill="#d97757" d="M1063.825 935.825h43.55v43.55h-43.55z"/></g><g class="planting-small-trees-actor" data-actor="true" data-source-index="71"><path fill="#d97757" d="M1107.025 935.825h43.55v43.55h-43.55z"/></g><g class="planting-small-trees-prop" data-prop="true" data-source-index="72"><path fill="#4f4aa8" d="M635.825 978.225h43.55v43.55h-43.55z"/></g><g class="planting-small-trees-prop" data-prop="true" data-source-index="73"><path fill="#7c7cce" d="M678.225 978.225h43.55v43.55h-43.55z"/></g><g class="planting-small-trees-actor" data-actor="true" data-source-index="74"><path fill="#d97757" d="M763.825 978.225h43.55v43.55h-43.55z"/></g><g class="planting-small-trees-actor" data-actor="true" data-source-index="75"><path fill="#d97757" d="M807.025 978.225h43.55v43.55h-43.55z"/></g><g class="planting-small-trees-actor" data-actor="true" data-source-index="76"><path fill="#d97757" d="M850.225 978.225h43.55v43.55h-43.55z"/></g><g class="planting-small-trees-actor" data-actor="true" data-source-index="77"><path fill="#d97757" d="M892.625 978.225h43.55v43.55h-43.55z"/></g><g class="planting-small-trees-actor" data-actor="true" data-source-index="78"><path fill="#fff" d="M935.825 978.225h43.55v43.55h-43.55z"/></g><g class="planting-small-trees-actor" data-actor="true" data-source-index="79"><path fill="#d97757" d="M978.225 978.225h43.55v43.55h-43.55z"/></g><g class="planting-small-trees-actor" data-actor="true" data-source-index="80"><path fill="#d97757" d="M1021.425 978.225h43.55v43.55h-43.55z"/></g><g class="planting-small-trees-actor" data-actor="true" data-source-index="81"><path fill="#fff" d="M1063.825 978.225h43.55v43.55h-43.55z"/></g><g class="planting-small-trees-actor" data-actor="true" data-source-index="82"><path fill="#d97757" d="M1107.025 978.225h43.55v43.55h-43.55z"/></g><g class="planting-small-trees-prop" data-prop="true" data-source-index="83"><path fill="#7c7cce" d="M635.825 1021.425h43.55v43.55h-43.55z"/></g><g class="planting-small-trees-prop" data-prop="true" data-source-index="84"><path fill="#4f4aa8" d="M678.225 1021.425h43.55v43.55h-43.55z"/></g><g class="planting-small-trees-actor" data-actor="true" data-source-index="85"><path fill="#d97757" d="M721.425 1021.425h43.55v43.55h-43.55z"/></g><g class="planting-small-trees-prop" data-prop="true" data-source-index="86"><path fill="#6de26d" d="M763.825 1021.425h43.55v43.55h-43.55z"/></g><g class="planting-small-trees-prop" data-prop="true" data-source-index="87"><path fill="#13ce1b" d="M807.025 1021.425h43.55v43.55h-43.55z"/></g><g class="planting-small-trees-prop" data-prop="true" data-source-index="88"><path fill="#6de26d" d="M850.225 1021.425h43.55v43.55h-43.55z"/></g><g class="planting-small-trees-actor" data-actor="true" data-source-index="89"><path fill="#d97757" d="M892.625 1021.425h43.55v43.55h-43.55z"/></g><g class="planting-small-trees-actor" data-actor="true" data-source-index="90"><path fill="#d97757" d="M935.825 1021.425h43.55v43.55h-43.55z"/></g><g class="planting-small-trees-actor" data-actor="true" data-source-index="91"><path fill="#fff" d="M978.225 1021.425h43.55v43.55h-43.55z"/></g><g class="planting-small-trees-actor" data-actor="true" data-source-index="92"><path fill="#fff" d="M1021.425 1021.425h43.55v43.55h-43.55z"/></g><g class="planting-small-trees-actor" data-actor="true" data-source-index="93"><path fill="#d97757" d="M1063.825 1021.425h43.55v43.55h-43.55z"/></g><g class="planting-small-trees-actor" data-actor="true" data-source-index="94"><path fill="#d97757" d="M1107.025 1021.425h43.55v43.55h-43.55z"/></g><g class="planting-small-trees-prop" data-prop="true" data-source-index="95"><path fill="#13ce1b" d="M763.825 1063.825h43.55v43.55h-43.55z"/></g><g class="planting-small-trees-prop" data-prop="true" data-source-index="96"><path fill="#6de26d" d="M807.025 1063.825h43.55v43.55h-43.55z"/></g><g class="planting-small-trees-prop" data-prop="true" data-source-index="97"><path fill="#13ce1b" d="M850.225 1063.825h43.55v43.55h-43.55z"/></g><g class="planting-small-trees-actor" data-actor="true" data-source-index="98"><path fill="#d97757" d="M892.625 1063.825h43.55v43.55h-43.55z"/></g><g class="planting-small-trees-actor" data-actor="true" data-source-index="99"><path fill="#d97757" d="M935.825 1063.825h43.55v43.55h-43.55z"/></g><g class="planting-small-trees-actor" data-actor="true" data-source-index="100"><path fill="#d97757" d="M978.225 1063.825h43.55v43.55h-43.55z"/></g><g class="planting-small-trees-actor" data-actor="true" data-source-index="101"><path fill="#d97757" d="M1021.425 1063.825h43.55v43.55h-43.55z"/></g><g class="planting-small-trees-actor" data-actor="true" data-source-index="102"><path fill="#d97757" d="M1063.825 1063.825h43.55v43.55h-43.55z"/></g><g class="planting-small-trees-actor" data-actor="true" data-source-index="103"><path fill="#d97757" d="M1107.025 1063.825h43.55v43.55h-43.55z"/></g><g class="planting-small-trees-prop" data-prop="true" data-source-index="104"><path fill="#6de26d" d="M763.825 1107.025h43.55v43.55h-43.55z"/></g><g class="planting-small-trees-prop" data-prop="true" data-source-index="105"><path fill="#13ce1b" d="M807.025 1107.025h43.55v43.55h-43.55z"/></g><g class="planting-small-trees-prop" data-prop="true" data-source-index="106"><path fill="#6de26d" d="M850.225 1107.025h43.55v43.55h-43.55z"/></g><g class="planting-small-trees-actor" data-actor="true" data-source-index="107"><path fill="#d97757" d="M892.625 1107.025h43.55v43.55h-43.55z"/></g><g class="planting-small-trees-actor" data-actor="true" data-source-index="108"><path fill="#d97757" d="M935.825 1107.025h43.55v43.55h-43.55z"/></g><g class="planting-small-trees-actor" data-actor="true" data-source-index="109"><path fill="#d97757" d="M978.225 1107.025h43.55v43.55h-43.55z"/></g><g class="planting-small-trees-actor" data-actor="true" data-source-index="110"><path fill="#d97757" d="M1021.425 1107.025h43.55v43.55h-43.55z"/></g><g class="planting-small-trees-actor" data-actor="true" data-source-index="111"><path fill="#d97757" d="M1063.825 1107.025h43.55v43.55h-43.55z"/></g><g class="planting-small-trees-actor" data-actor="true" data-source-index="112"><path fill="#d97757" d="M1107.025 1107.025h43.55v43.55h-43.55z"/></g><g class="planting-small-trees-prop" data-prop="true" data-source-index="113"><path fill="#828293" d="M807.025 1149.425h43.55v43.55h-43.55z"/></g><g class="planting-small-trees-actor" data-actor="true" data-source-index="114"><path fill="#d97757" d="M892.625 1149.425h43.55v43.55h-43.55z"/></g><g class="planting-small-trees-prop" data-prop="true" data-source-index="115"><path fill="#efd760" d="M807.025 1192.625h43.55v43.55h-43.55z"/></g><g class="planting-small-trees-actor" data-actor="true" data-source-index="116"><path fill="#d97757" d="M892.625 1192.625h43.55v43.55h-43.55z"/></g><g class="planting-small-trees-actor" data-actor="true" data-source-index="117"><path fill="#d97757" d="M1149.425 763.825h43.55v43.55h-43.55z"/></g><g class="planting-small-trees-actor" data-actor="true" data-source-index="118"><path fill="#d97757" d="M1149.425 807.025h43.55v43.55h-43.55z"/></g><g class="planting-small-trees-actor" data-actor="true" data-source-index="119"><path fill="#d97757" d="M1149.425 850.225h43.55v43.55h-43.55z"/></g><g class="planting-small-trees-actor" data-actor="true" data-source-index="120"><path fill="#2f2f38" d="M1149.425 935.825h43.55v43.55h-43.55z"/></g><g class="planting-small-trees-actor" data-actor="true" data-source-index="121"><path fill="#d97757" d="M1149.425 978.225h43.55v43.55h-43.55z"/></g><g class="planting-small-trees-actor" data-actor="true" data-source-index="122"><path fill="#d97757" d="M1149.425 1021.425h43.55v43.55h-43.55z"/></g><g class="planting-small-trees-actor" data-actor="true" data-source-index="123"><path fill="#d97757" d="M1149.425 1063.825h43.55v43.55h-43.55z"/></g><g class="planting-small-trees-actor" data-actor="true" data-source-index="124"><path fill="#d97757" d="M1149.425 1107.025h43.55v43.55h-43.55z"/></g><g class="planting-small-trees-actor" data-actor="true" data-source-index="125"><path fill="#d97757" d="M1192.625 763.825h43.55v43.55h-43.55z"/></g><g class="planting-small-trees-actor" data-actor="true" data-source-index="126"><path fill="#d97757" d="M1192.625 807.025h43.55v43.55h-43.55z"/></g><g class="planting-small-trees-actor" data-actor="true" data-source-index="127"><path fill="#d97757" d="M1192.625 892.625h43.55v43.55h-43.55z"/></g><g class="planting-small-trees-actor" data-actor="true" data-source-index="128"><path fill="#d97757" d="M1192.625 935.825h43.55v43.55h-43.55z"/></g><g class="planting-small-trees-actor" data-actor="true" data-source-index="129"><path fill="#d97757" d="M1192.625 978.225h43.55v43.55h-43.55z"/></g><g class="planting-small-trees-actor" data-actor="true" data-source-index="130"><path fill="#d97757" d="M1192.625 1021.425h43.55v43.55h-43.55z"/></g><g class="planting-small-trees-actor" data-actor="true" data-source-index="131"><path fill="#d97757" d="M1192.625 1063.825h43.55v43.55h-43.55z"/></g><g class="planting-small-trees-actor" data-actor="true" data-source-index="132"><path fill="#d97757" d="M1192.625 1107.025h43.55v43.55h-43.55z"/></g><g class="planting-small-trees-actor" data-actor="true" data-source-index="133"><path fill="#d97757" d="M1192.625 1149.425h43.55v43.55h-43.55z"/></g><g class="planting-small-trees-actor" data-actor="true" data-source-index="134"><path fill="#d97757" d="M1192.625 1192.625h43.55v43.55h-43.55z"/></g><g class="planting-small-trees-actor" data-actor="true" data-source-index="135"><path fill="#d97757" d="M1235.825 763.825h43.55v43.55h-43.55z"/></g><g class="planting-small-trees-actor" data-actor="true" data-source-index="136"><path fill="#d97757" d="M1235.825 807.025h43.55v43.55h-43.55z"/></g><g class="planting-small-trees-actor" data-actor="true" data-source-index="137"><path fill="#d97757" d="M1235.825 850.225h43.55v43.55h-43.55z"/></g><g class="planting-small-trees-actor" data-actor="true" data-source-index="138"><path fill="#d97757" d="M1235.825 935.825h43.55v43.55h-43.55z"/></g><g class="planting-small-trees-actor" data-actor="true" data-source-index="139"><path fill="#d97757" d="M1235.825 978.225h43.55v43.55h-43.55z"/></g><g class="planting-small-trees-actor" data-actor="true" data-source-index="140"><path fill="#d97757" d="M1235.825 1021.425h43.55v43.55h-43.55z"/></g><g class="planting-small-trees-actor" data-actor="true" data-source-index="141"><path fill="#d97757" d="M1235.825 1063.825h43.55v43.55h-43.55z"/></g><g class="planting-small-trees-actor" data-actor="true" data-source-index="142"><path fill="#d97757" d="M1235.825 1107.025h43.55v43.55h-43.55z"/></g><g class="planting-small-trees-actor" data-actor="true" data-source-index="143"><path fill="#d97757" d="M1278.225 763.825h43.55v43.55h-43.55z"/></g><g class="planting-small-trees-actor" data-actor="true" data-source-index="144"><path fill="#d97757" d="M1278.225 807.025h43.55v43.55h-43.55z"/></g><g class="planting-small-trees-actor" data-actor="true" data-source-index="145"><path fill="#d97757" d="M1278.225 850.225h43.55v43.55h-43.55z"/></g><g class="planting-small-trees-actor" data-actor="true" data-source-index="146"><path fill="#d97757" d="M1278.225 892.625h43.55v43.55h-43.55z"/></g><g class="planting-small-trees-actor" data-actor="true" data-source-index="147"><path fill="#d97757" d="M1278.225 935.825h43.55v43.55h-43.55z"/></g><g class="planting-small-trees-actor" data-actor="true" data-source-index="148"><path fill="#d97757" d="M1278.225 978.225h43.55v43.55h-43.55z"/></g><g class="planting-small-trees-actor" data-actor="true" data-source-index="149"><path fill="#d97757" d="M1278.225 1021.425h43.55v43.55h-43.55z"/></g><g class="planting-small-trees-actor" data-actor="true" data-source-index="150"><path fill="#d97757" d="M1278.225 1063.825h43.55v43.55h-43.55z"/></g><g class="planting-small-trees-actor" data-actor="true" data-source-index="151"><path fill="#d97757" d="M1278.225 1107.025h43.55v43.55h-43.55z"/></g><g class="planting-small-trees-actor" data-actor="true" data-source-index="152"><path fill="#d97757" d="M1321.425 763.825h43.55v43.55h-43.55z"/></g><g class="planting-small-trees-actor" data-actor="true" data-source-index="153"><path fill="#d97757" d="M1321.425 807.025h43.55v43.55h-43.55z"/></g><g class="planting-small-trees-actor" data-actor="true" data-source-index="154"><path fill="#d97757" d="M1321.425 850.225h43.55v43.55h-43.55z"/></g><g class="planting-small-trees-actor" data-actor="true" data-source-index="155"><path fill="#d97757" d="M1321.425 892.625h43.55v43.55h-43.55z"/></g><g class="planting-small-trees-actor" data-actor="true" data-source-index="156"><path fill="#d97757" d="M1321.425 935.825h43.55v43.55h-43.55z"/></g><g class="planting-small-trees-actor" data-actor="true" data-source-index="157"><path fill="#d97757" d="M1321.425 978.225h43.55v43.55h-43.55z"/></g><g class="planting-small-trees-actor" data-actor="true" data-source-index="158"><path fill="#d97757" d="M1321.425 1021.425h43.55v43.55h-43.55z"/></g><g class="planting-small-trees-actor" data-actor="true" data-source-index="159"><path fill="#d97757" d="M1363.825 1021.425h43.55v43.55h-43.55z"/></g><g class="planting-small-trees-actor" data-actor="true" data-source-index="160"><path fill="#d97757" d="M1407.025 1021.425h43.55v43.55h-43.55z"/></g><g class="planting-small-trees-actor" data-actor="true" data-source-index="161"><path fill="#d97757" d="M1321.425 1063.825h43.55v43.55h-43.55z"/></g><g class="planting-small-trees-actor" data-actor="true" data-source-index="162"><path fill="#d97757" d="M1321.425 1107.025h43.55v43.55h-43.55z"/></g></svg>