<svg xmlns="http://www.w3.org/2000/svg" width="140" height="168" viewBox="0 -20 100 120"><defs><linearGradient id="gjBodyGrad" x1="0" x2=".3" y1="0" y2="1"><stop offset="0%" stop-color="#6aa3ff"/><stop offset="20%" stop-color="#4285f4"/><stop offset="50%" stop-color="#7b68ee"/><stop offset="80%" stop-color="#ea4335"/><stop offset="100%" stop-color="#b82a22"/></linearGradient><linearGradient id="gjBorderGrad" x1="0" x2="1" y1="0" y2="1"><stop offset="0%" stop-color="#6aa3ff"/><stop offset="25%" stop-color="#4285f4"/><stop offset="50%" stop-color="#9080f0"/><stop offset="75%" stop-color="#ea4335"/><stop offset="100%" stop-color="#c03028"/></linearGradient><linearGradient id="gjInnerGrad" x1="0" x2=".3" y1="0" y2="1"><stop offset="0%" stop-color="#282840"/><stop offset="50%" stop-color="#1a1a2e"/><stop offset="100%" stop-color="#0e0e1a"/></linearGradient><linearGradient id="gjArmL" x1="0" x2="1" y1="0" y2=".5"><stop offset="0%" stop-color="#3570d0"/><stop offset="50%" stop-color="#5a78e0"/><stop offset="100%" stop-color="#7b68ee"/></linearGradient><linearGradient id="gjArmR" x1="0" x2="1" y1="0" y2=".5"><stop offset="0%" stop-color="#d04535"/><stop offset="50%" stop-color="#ea4335"/><stop offset="100%" stop-color="#c03028"/></linearGradient><linearGradient id="gjLegL" x1="0" x2="0" y1="0" y2="1"><stop offset="0%" stop-color="#4285f4"/><stop offset="50%" stop-color="#6a58d0"/><stop offset="100%" stop-color="#5040a0"/></linearGradient><linearGradient id="gjLegR" x1="0" x2="0" y1="0" y2="1"><stop offset="0%" stop-color="#b84030"/><stop offset="50%" stop-color="#ea4335"/><stop offset="100%" stop-color="#d03828"/></linearGradient><linearGradient id="gjChevronGrad" x1="0" x2="1" y1="0" y2="1"><stop offset="0%" stop-color="#6aa3ff"/><stop offset="30%" stop-color="#4285f4"/><stop offset="60%" stop-color="#9080f0"/><stop offset="100%" stop-color="#ea4335"/></linearGradient><filter id="gjDropShadow" width="130%" height="140%" x="-15%" y="-15%"><feDropShadow dx="1.5" dy="2.5" flood-color="#000" flood-opacity=".28" stdDeviation="1.8"/></filter><filter id="gjInnerDepth" width="110%" height="110%" x="-5%" y="-5%"><feGaussianBlur in="SourceAlpha" result="blur" stdDeviation="1.5"/><feOffset dx="0" dy="1.5" result="off"/><feFlood flood-color="#000" flood-opacity=".2" result="color"/><feComposite in="color" in2="off" operator="in" result="shadow"/><feMerge><feMergeNode in="shadow"/><feMergeNode in="SourceGraphic"/></feMerge></filter><filter id="gjChevronGlow" width="130%" height="130%" x="-15%" y="-15%"><feGaussianBlur in="SourceGraphic" result="blur" stdDeviation="1"/><feMerge><feMergeNode in="blur"/><feMergeNode in="SourceGraphic"/></feMerge></filter><radialGradient id="gjEyeGrad" cx="35%" cy="30%" r="65%"><stop offset="0%" stop-color="#fff"/><stop offset="60%" stop-color="#f0f0f0"/><stop offset="100%" stop-color="#d8d8d8"/></radialGradient><radialGradient id="gjShadowGrad" cx="50%" cy="50%" r="50%"><stop offset="0%" stop-color="#000" stop-opacity=".35"/><stop offset="60%" stop-color="#000" stop-opacity=".15"/><stop offset="100%" stop-color="#000" stop-opacity="0"/></radialGradient></defs><style>@keyframes jump{0%,to{transform:translateY(0) scaleY(1) scaleX(1)}30%{transform:translateY(-16px) scaleY(1.1) scaleX(.95)}50%{transform:translateY(-18px) scaleY(1.05) scaleX(.98)}80%{transform:translateY(-5px) scaleY(.95) scaleX(1.05)}}@keyframes shadow-scale{0%,to{transform:scaleX(1);opacity:.35}50%{transform:scaleX(.7);opacity:.25}}@keyframes wave-left{0%,to{transform:rotate(0deg)}50%{transform:rotate(-25deg)}}@keyframes wave-right{0%,to{transform:rotate(0deg)}50%{transform:rotate(25deg)}}@keyframes leg-bounce{0%,to{transform:scaleY(1)}40%{transform:scaleY(1.15)}60%{transform:scaleY(.88)}}.left-arm{animation:wave-left .5s ease-in-out infinite;transform-origin:18px 45px}.right-arm{animation:wave-right .5s ease-in-out infinite;transform-origin:66px 45px}.left-leg{animation:leg-bounce .5s ease-in-out infinite;transform-origin:30px 72px}.right-leg{animation:leg-bounce .5s ease-in-out infinite .1s;transform-origin:54px 72px}</style><ellipse cx="42" cy="92" fill="url(#gjShadowGrad)" rx="20" ry="4" style="animation:shadow-scale .5s ease-in-out infinite"/><g filter="url(#gjDropShadow)" style="animation:jump .5s ease-in-out infinite;transform-origin:42px 86px"><rect width="12" height="6" x="6" y="42" fill="url(#gjArmL)" class="left-arm" rx="2"/><rect width="4" height="2" x="7" y="43" fill="#8ab8ff" class="left-arm" opacity=".3" rx=".5"/><rect width="12" height="6" x="66" y="42" fill="url(#gjArmR)" class="right-arm" rx="2"/><rect width="4" height="2" x="67" y="43" fill="#f08070" class="right-arm" opacity=".25" rx=".5"/><rect width="8" height="14" x="26" y="72" fill="url(#gjLegL)" class="left-leg" rx="2"/><rect width="3" height="7" x="27" y="73" fill="#6aa3ff" class="left-leg" opacity=".3" rx=".5"/><rect width="8" height="14" x="50" y="72" fill="url(#gjLegR)" class="right-leg" rx="2"/><rect width="3" height="7" x="51" y="73" fill="#f08070" class="right-leg" opacity=".25" rx=".5"/><g filter="url(#gjInnerDepth)" transform="translate(10 8)"><rect width="64" height="64" x="0" y="0" fill="url(#gjBorderGrad)" rx="14"/><rect width="40" height="3" x="2" y="1" fill="#8ab8ff" opacity=".3" rx="2"/><rect width="54" height="54" x="5" y="5" fill="url(#gjInnerGrad)" rx="10"/><rect width="28" height="4" x="8" y="7" fill="#3a3a58" opacity=".4" rx="2"/><g filter="url(#gjChevronGlow)" transform="translate(14 16)"><path fill="url(#gjChevronGrad)" d="M0 14 20 0l4 5-14 11z"/><path fill="url(#gjChevronGrad)" d="m0 18 10-2 14 11-4 5z"/><path fill="#9cc0ff" d="M1 14.5 18 2l2 2L9 14z" opacity=".25"/></g></g><rect width="8" height="12" x="24" y="28" fill="url(#gjEyeGrad)" rx="2"/><rect width="2.5" height="2.5" x="25" y="29" fill="#fff" opacity=".8" rx=".5"/><rect width="1.2" height="1.2" x="29" y="35" fill="#fff" opacity=".35" rx=".3"/><rect width="8" height="12" x="44" y="28" fill="url(#gjEyeGrad)" rx="2"/><rect width="2.5" height="2.5" x="45" y="29" fill="#fff" opacity=".8" rx=".5"/><rect width="1.2" height="1.2" x="49" y="35" fill="#fff" opacity=".35" rx=".3"/></g></svg>